<?xml version="1.0" standalone="no"?>
<!DOCTYPE svg PUBLIC "-//W3C//DTD SVG 1.1//EN" "http://www.w3.org/Graphics/SVG/1.1/DTD/svg11.dtd" >
<svg xmlns="http://www.w3.org/2000/svg">
<metadata>Generated by IcoMoon</metadata>
<defs>
<font id="icomoon" horiz-adv-x="1024">
<font-face units-per-em="1024" ascent="960" descent="-64" />
<missing-glyph horiz-adv-x="1024" />
<glyph unicode="&#x20;" horiz-adv-x="512" d="" />
<glyph unicode="&#xc100;" glyph-name="easyicon" d="M950.926 781.981c-130.112 71.749-281.949 109.665-438.926 109.665-157.062 0-308.942-37.961-438.926-109.665-7.309-4.039-11.521-11.898-10.969-20.23 24.145-325.26 188.39-607.336 439.137-754.495 3.314-1.997 7.016-2.892 10.756-2.892s7.436 0.892 10.756 2.892c250.829 147.2 415.080 429.321 439.137 754.542 0.596 8.378-3.661 16.236-10.969 20.191zM512 50.391c-229.322 139.724-380.143 400.033-406.409 700.938 121.105 64.101 261.245 97.889 406.409 97.889 145.078 0 285.266-33.794 406.409-97.889-26.269-300.906-177.088-561.177-406.409-700.938zM512 790.013c-2.979 0-5.91-0.683-8.501-1.826-111.114-1.062-222.103-22.489-319.695-65.033-8.757-3.825-13.899-13.089-12.538-22.569 34.854-237.233 154.556-445.303 328.285-570.741 0.383-0.339 0.892-0.171 1.231-0.427 3.314-2.041 6.971-3.613 11.223-3.613s7.908 1.576 11.223 3.661c0.339 0.254 0.892 0.082 1.231 0.427 173.728 125.438 293.299 333.505 328.285 570.741 1.359 9.524-3.741 18.744-12.538 22.569-97.557 42.549-208.453 64.018-319.695 65.033-2.592 1.151-5.527 1.789-8.501 1.789zM490.746 745.38v-215.681h-232.81c-18.615 51.35-32.862 105.162-42.080 160.89 84.76 34.605 179.509 52.365 274.89 54.794zM275.11 487.147h215.64v-295.631c-92.196 76.169-165.946 177.846-215.64 295.631zM533.254 191.555v295.631h215.64c-49.688-117.829-123.437-219.513-215.64-295.631zM766.062 529.655h-232.81v215.681c95.385-2.379 190.218-20.191 274.89-54.794-9.225-55.685-23.551-109.54-42.080-160.89z" />
<glyph unicode="&#xc101;" glyph-name="chongzhi" horiz-adv-x="761" d="M683.115 713.29c-56.438-56.457-147.944-56.457-204.382 0-56.438 56.438-56.438 147.925 0 204.363 56.438 56.457 147.944 56.457 204.382 0 56.438-56.419 56.438-147.925 0-204.363zM659.058 893.615c-43.168 43.168-113.137 43.168-156.287 0-43.168-43.168-43.168-113.137 0-156.287 43.15-43.168 113.137-43.168 156.287 0 43.168 43.168 43.168 113.137 0 156.287zM603.833 824.392c10.19 0 20.38-0.056 30.626-0.131 0-5.45 0-16.386 0-21.855-13.027-3.546-39.697 8.94-39.025-13.046 10.582-8.398 26.334-2.725 39.025-4.927 0-5.394 0-16.256 0-21.724-12.56 0.056-25.139 0.056-37.644 0.056-0.261-10.377-0.392-20.828-0.597-31.28-10.974 0.411-21.892 0.877-32.866 1.232 0.131 9.966 0.261 19.82 0.467 29.637-12.84 0.28-25.606 0.467-38.297 0.616 0 5.468 0 16.405 0 21.855 12.691 0.131 25.401 0.28 38.166 0.28-0.056 4.237-0.056 12.635-0.131 16.797-12.71 0.131-25.401 0.28-38.036 0.28 0 5.524 0 16.536 0 22.004 10.060 0.131 20.231 0.205 30.421 0.205-13.568 25.009-27.323 31.205-40.35 56.401 11.571-0.131 23.217-0.411 34.919-0.747 10.321-22.489 20.716-26.147 30.496-48.898 10.843 22.545 21.761 26.353 32.213 49.103 10.974 0.205 21.967 0.485 33.015 0.541-13.755-25.195-28.312-31.336-42.403-56.401zM760.549 307.045c0-103.749-56.587-195.704-143.708-252.571 2.333-40.201 4.125-102.406-2.967-109.554-11.273-11.273-114.089-12.542-126.631 0-4.722 4.778-20.847 29.656-39.174 51.007-12.616-1.25-25.438-1.904-38.409-1.904-17.114 0-33.65 1.064-49.812 2.725-20.754-24.132-40.163-46.509-45.445-51.791-12.542-12.542-115.283-11.291-126.575 0-7.801 7.839-4.796 73.981-2.221 114.052-49.439 34.396-88.277 81.316-114.313 138.612 0 0-52.183 11.665-62.951 22.471-10.769 10.769-11.478 127.321 0 138.892 11.497 11.459 55.43 25.942 55.43 25.942 30.794 65.881 70.286 120.957 120.901 161.456-32.325 33.407-59.909 108.807-92.57 131.315 0 39.958 124.559 6.532 178.459-11.198 34.378-11.31 61.272-29.6 77.863-50.69 19.429 2.744 39.828 4.181 61.234 4.181 193.8 0.019 350.889-140.124 350.889-312.946zM409.641 572.344c-18.757 0-37.084-1.25-54.59-3.77l-27.062-3.807-16.89 21.537c-11.273 14.315-31.429 27.024-55.355 34.919-23.74 7.801-51.94 15.696-77.359 20.996 1.96-3.341 3.938-6.793 5.916-10.209 11.833-20.53 24.094-41.694 34.508-52.463l36.468-37.793-41.022-32.717c-42.31-33.743-78.479-82.305-107.463-144.323l-8.716-18.663-19.466-6.42c-10.358-3.434-22.097-8.044-29.525-11.198-2.053-19.354-2.053-54.404-0.112-75.288 9.164-3.023 21.612-6.513 32.661-8.996l23.105-5.151 9.817-21.575c22.415-49.383 55.449-89.491 98.15-119.203l22.041-15.36-1.717-26.875c-2.24-34.826-2.781-57.278-2.669-71.536 6.308-0.411 13.886-0.747 22.545-0.747 16.61 0 27.939 1.064 34.303 1.997 8.287 9.332 22.097 25.345 36.655 42.235l16.2 18.85 24.692-2.557c14.52-1.53 29.451-2.501 44.885-2.501 11.385 0 22.639 0.56 33.725 1.661l24.561 2.464 16.106-18.757c11.926-13.886 23.012-29.096 31.056-40.201 0.373-0.504 0.747-1.026 1.064-1.493 6.607-0.821 17.413-1.754 32.586-1.754 0.037 0 0.037 0 0.037 0 8.641 0 16.2 0.317 22.527 0.747 0.224 15.323-0.224 37.868-1.904 67.3l-1.624 27.603 23.124 15.099c77.621 50.727 122.133 128.217 122.133 212.65-0.019 146.264-136.112 265.299-303.391 265.299zM511.412 472.402c-56.307 16.797-119.035-2.837-114.63 12.15 4.461 14.987 66.087 39.454 122.394 22.657 56.401-16.797 111.252-91.898 106.847-106.866-4.461-15.024-58.211 55.299-114.611 72.059zM236.707 382.986c-16.405 0-29.712 13.363-29.712 29.805 0 16.424 13.307 29.805 29.712 29.805s29.712-13.363 29.712-29.805c0-16.442-13.288-29.805-29.712-29.805z" />
<glyph unicode="&#xc102;" glyph-name="dingqi" horiz-adv-x="1425" d="M1291.121-64h-1157.561c-73.762 0-133.561 59.798-133.561 133.588v756.852c0 73.762 59.798 133.561 133.561 133.561h1157.534c73.762 0 133.561-59.798 133.561-133.561v-756.852c0.027-73.789-59.771-133.588-133.534-133.588zM1335.632 781.901c0 49.184-39.866 89.049-89.049 89.049h-1068.511c-49.157 0-89.022-39.866-89.022-89.049v-89.022h1246.583v-133.561h-1246.583v-445.193c0-49.184 39.866-89.049 89.022-89.049h1068.511c49.184 0 89.049 39.866 89.049 89.049v667.776zM1068.511 203.148c49.157 0 89.049 39.866 89.049 89.049s-39.866 89.049-89.049 89.049c-26.739 0-50.453-12.046-66.767-30.709-16.341 18.663-40.055 30.709-66.794 30.709-49.184 0-89.049-39.866-89.049-89.049s39.866-89.049 89.049-89.049c26.766 0 50.48 12.046 66.794 30.709 16.314-18.663 40.028-30.709 66.767-30.709z" />
<glyph unicode="&#xc103;" glyph-name="huodong" horiz-adv-x="893" d="M293.115 451.109c-33.625-60.129-66.368-118.709-99.111-177.268 0.947-0.817 1.915-1.613 2.861-2.409 20.287 3.98 40.552 8.046 60.882 11.854 2.28 0.43 4.432 0.839 6.454 0.839 3.958 0 7.379-1.57 10.305-7.68 7.142-14.909 17.189-28.44 26.138-42.467 1.484-2.323 3.614-4.217 6.605-7.616 41.864 74.414 82.739 147.042 123.593 219.67 0.99-0.172 1.979-0.366 2.969-0.538 0.258-3.593 0.71-7.164 0.71-10.757 0.043-148.268 0.043-296.493 0.043-444.739 0-15.597-0.065-15.662-15.231-15.662-1.269 0-2.539 0-3.808 0-49.2 0-98.401 0.043-147.601 0.043-52.384 0-104.79-0.065-157.174-0.28-0.086 0-0.194 0-0.28 0-11.617 0-14.715 3.141-14.672 15.016 0.409 148.225 0.237 296.471 0.215 444.696 0 5.378 0 10.778 0 17.275 66.131 0.022 130.176 0.022 197.103 0.022zM293.115 489.23h-197.146c-21.061 0-38.121-17.060-38.121-38.121v-17.275c0-30.441 0.022-60.882 0.022-91.323 0.043-115.805 0.086-235.525-0.237-353.266-0.022-6.131-0.065-24.762 14.156-39.025 14.177-14.22 32.592-14.22 38.659-14.22h0.473c57.569 0.258 114.148 0.28 156.981 0.28 24.589 0 49.179-0.022 73.79-0.022s49.222-0.022 73.833-0.022h3.808c11.596 0 27.472 0 40.617 13.51 12.736 13.080 12.736 28.784 12.736 40.251 0.022 148.246 0.022 296.471-0.022 444.718 0 4.131-0.323 7.766-0.581 10.692-0.086 0.904-0.172 1.786-0.215 2.689-1.205 17.361-14.027 31.71-31.151 34.851l-1.57 0.28-1.398 0.258c-2.302 0.43-4.604 0.624-6.906 0.624-13.575 0-26.375-7.271-33.216-19.426l-92.7-164.769c-9.272 14.113-23.557 22.115-40.186 22.266l61.656 110.276c6.605 11.811 6.454 26.224-0.387 37.884-6.863 11.725-19.383 18.888-32.893 18.888v0zM614.069 921.879c26.676 0 52.148-9.38 75.683-29.279 21.126-17.877 56.837-81.879 33.582-135.64-13.037-30.118-34.658-51.244-61.355-68.541-2.302-1.484-3.915-4.044-7.551-7.895 5.787-0.409 8.412-0.753 11.036-0.753 33.732-0.043 67.465-0.151 101.197-0.151 24.525 0 49.050 0.065 73.575 0.258 0.129 0 0.258 0 0.387 0 11.251 0 14.285-4.023 14.156-14.973-0.645-52.793-0.581-105.586-0.796-158.358-0.065-16.135-0.688-16.78-16.436-16.78-62.517 0-125.012 0.043-187.529 0.043-57.139 0-114.32-0.043-171.459-0.151-0.043 0-0.065 0-0.108 0-11.015 0-15.059 3.636-14.952 14.866 0.215 21.685 0.28 23.342 0.28 23.342 0.022 0 0.022 0 0.022 0 0-0.043 0-0.043 0-0.043s0 0.022 0 0.043c0 0.344-0.043 3.335-0.043 23.32 0 27.3-0.022 32.786-17.34 33.582-17.318-0.796-17.34-6.282-17.34-33.582 0-20.007-0.043-22.976-0.043-23.32 0-0.022 0-0.043 0-0.043s0 0 0 0.043v0.022c0.022 0 0.086-1.678 0.301-23.342 0.108-11.23-3.915-14.866-14.952-14.866-0.043 0-0.065 0-0.108 0-57.16 0.129-114.299 0.151-171.459 0.151-62.495 0-125.012-0.043-187.508-0.043 0 0-0.022 0-0.022 0-15.726 0-16.35 0.667-16.414 16.78-0.215 52.793-0.151 105.586-0.796 158.358-0.129 10.95 2.883 14.973 14.156 14.973 0.129 0 0.258 0 0.387 0 24.525-0.194 49.050-0.258 73.575-0.258 33.732 0 67.465 0.108 101.197 0.151 2.625 0 5.249 0.344 11.036 0.753-3.636 3.851-5.249 6.411-7.551 7.895-26.676 17.296-47.2 38.917-61.355 68.541-32.893 68.842 12.456 117.762 33.582 135.64 23.535 19.9 49.007 29.279 75.683 29.279 15.769 0 31.947-3.291 48.383-9.595 51.352-19.77 87.644-56.945 110.792-106.683 3.291-7.078 5.679-14.607 8.433-23.127 2.732 8.519 5.142 16.049 8.433 23.127 23.148 49.738 59.441 86.913 110.792 106.683 16.522 6.303 32.7 9.573 48.447 9.573zM477.676 696.078c15.36 2.065 30.011 3.399 44.424 6.11 35.324 6.626 70.391 14.564 102.23 32.162 19.9 10.993 39.218 23.428 45.177 47.35 10.068 40.531-13.446 81.621-56.364 81.599-2.022 0-4.087-0.086-6.196-0.28-24.417-2.173-46.102-13.682-61.764-33.367-30.269-38.057-51.502-81.083-67.443-126.841-0.452-1.334-0.065-2.969-0.065-6.734zM415.267 696.078c0 3.765 0.409 5.4-0.065 6.734-15.941 45.758-37.175 88.784-67.443 126.841-15.662 19.684-37.347 31.194-61.764 33.367-2.108 0.194-4.174 0.28-6.196 0.28-42.919 0-66.432-41.068-56.364-81.599 5.938-23.923 25.278-36.379 45.177-47.35 31.839-17.576 66.906-25.536 102.23-32.162 14.414-2.711 29.064-4.044 44.424-6.11zM614.069 960v0c-20.244 0-41.133-4.087-62.065-12.155-43.22-16.63-78.544-43.887-105.522-81.276-26.977 37.39-62.323 64.647-105.522 81.276-20.954 8.067-41.843 12.155-62.087 12.155-36.508 0-70.24-12.886-100.294-38.293-14.736-12.478-34.937-33.496-47.479-62.84-16.221-37.884-14.779-78.802 4.109-118.365 3.808-7.96 8.024-15.532 12.693-22.782-7.228 0-14.457-0.022-21.664-0.022-28.161 0-51.438 0.086-73.273 0.258h-0.688c-15.898 0-28.763-4.862-38.229-14.457-14.349-14.521-14.113-33.023-14.027-39.111 0.452-37.605 0.559-75.963 0.645-113.030 0.043-15.016 0.086-30.011 0.129-45.027 0.043-10.972 0.108-27.537 13.209-40.918 13.51-13.811 30.247-13.811 41.327-13.811 29.172 0 58.3 0 87.451 0.022 33.367 0 66.734 0.022 100.1 0.022 67.443 0 121.893-0.043 171.373-0.151 0.022 0 0.151 0 0.194 0 12.628 0 23.342 2.99 32.033 8.928 8.67-5.938 19.405-8.928 32.033-8.928 0.043 0 0.129 0 0.172 0 49.502 0.108 103.951 0.151 171.395 0.151 33.367 0 66.734 0 100.1-0.022 29.129 0 58.279-0.022 87.408-0.022 0.065 0 0.151 0 0.215 0 11.079 0 27.687 0.086 41.111 13.768 13.123 13.381 13.188 29.989 13.231 40.961 0.065 14.995 0.108 30.011 0.129 45.005 0.086 37.089 0.194 75.425 0.645 113.051 0.086 6.088 0.301 24.589-14.027 39.111-9.487 9.595-22.352 14.457-38.229 14.457h-0.667c-21.836-0.172-45.134-0.258-73.295-0.258-7.035 0-14.070 0-21.104 0.022 4.862 7.68 9.1 15.683 12.736 24.073 31.538 72.929-13.854 154.421-43.951 179.871-30.054 25.45-63.808 38.336-100.315 38.336v0 0zM535.976 743.794c11.423 23.127 24.374 43.693 39.046 62.13 9.079 11.423 20.954 17.856 35.303 19.125 0.968 0.086 1.915 0.129 2.84 0.129v0c6.648 0 11.423-2.151 15.038-6.777 5.228-6.691 6.884-17.232 4.324-27.515-1.829-7.357-8.541-13.209-26.612-23.17-21.642-11.961-45.866-18.781-69.939-23.923v0zM356.988 743.794c-24.073 5.142-48.297 11.961-69.939 23.923-18.071 9.982-24.783 15.812-26.612 23.17-2.56 10.283-0.904 20.825 4.324 27.515 3.614 4.625 8.412 6.798 15.038 6.798 0.904 0 1.872-0.043 2.84-0.129 14.349-1.269 26.224-7.702 35.303-19.125 14.672-18.458 27.623-39.046 39.046-62.151v0zM796.973 451.109c0-6.497 0-11.875 0-17.275-0.022-148.246-0.194-296.471 0.215-444.696 0.022-11.875-3.076-15.016-14.693-15.016-0.086 0-0.194 0-0.28 0-52.384 0.237-104.79 0.28-157.174 0.28-49.2 0-98.401-0.043-147.601-0.043-1.269 0-2.539 0-3.808 0-15.145 0-15.231 0.065-15.231 15.662-0.022 148.225-0.022 296.471 0.022 444.696 0 3.593 0.473 7.164 0.71 10.757 0.99 0.172 1.979 0.366 2.969 0.538 40.875-72.628 81.728-145.278 123.593-219.67 2.99 3.399 5.12 5.292 6.605 7.616 8.949 14.027 18.975 27.558 26.138 42.467 2.926 6.088 6.346 7.68 10.305 7.68 2.022 0 4.174-0.409 6.454-0.839 20.33-3.808 40.595-7.895 60.882-11.854 0.947 0.796 1.915 1.613 2.861 2.409-32.743 58.58-65.486 117.139-99.111 177.268 66.927 0.022 130.993 0.022 197.146 0.022zM796.973 489.23h-197.124c-13.532 0-26.031-7.164-32.872-18.824s-6.992-26.074-0.387-37.884l61.656-110.276c-16.63-0.172-30.914-8.175-40.186-22.266l-3.722 6.626-88.978 158.142c-6.841 12.155-19.62 19.426-33.216 19.426-2.28 0-4.582-0.194-6.884-0.624l-1.635-0.301-1.355-0.237c-17.124-3.141-29.946-17.49-31.151-34.851-0.065-0.904-0.151-1.807-0.215-2.689-0.258-2.926-0.581-6.561-0.581-10.692-0.043-148.246-0.043-296.493-0.022-444.739 0-11.466 0-27.171 12.736-40.251 13.144-13.51 29.021-13.51 40.617-13.51h3.829c24.611 0 49.222 0.022 73.833 0.022 24.589 0.022 49.2 0.022 73.79 0.022 42.832 0 99.39-0.022 157.002-0.28h0.452c6.067 0 24.482 0 38.659 14.199 14.22 14.263 14.156 32.893 14.134 39.025-0.323 117.741-0.28 237.483-0.237 353.266 0.022 30.441 0.022 60.882 0.022 91.323v17.296c-0.043 20.997-17.103 38.078-38.164 38.078v0zM277.002 305.637l91.065 160.939zM611.595 305.637l-91.065 160.939z" />
<glyph unicode="&#xc104;" glyph-name="huoqi" d="M512.011-64c-282.337 0-512.011 229.674-512.011 511.989 0 282.337 229.674 512.011 512.011 512.011v-73.153c-242.015 0-438.857-196.863-438.857-438.857s196.842-438.857 438.857-438.857c241.994 0 438.857 196.863 438.857 438.857h73.153c-0.021-282.315-229.695-511.989-512.011-511.989zM697.214 464.735v-52.365h-127.88v-72.175h127.88v-53.025h-127.88v-105.070h-65.791v105.070h-132.583v53.025h132.583v72.175h-132.583v52.365h113.113l-137.966 236.993h74.196c64.451-117.709 103.602-192.352 117.475-223.886h1.341c4.702 12.98 17.576 39.151 38.598 78.537l78.899 145.349h70.153l-139.307-236.993h109.752z" />
<glyph unicode="&#xc105;" glyph-name="xiaop" horiz-adv-x="769" d="M649.522-50.431c-5.405 26.651-12.725 52.776-22.334 78.206-9.046 23.91-19.181 47.333-32.356 69.291-0.582 0.976-1.333 2.064-1.351 3.134-0.019 1.145 0.394 2.778 1.201 3.303 0.788 0.507 2.721 0.357 3.416-0.3 1.858-1.764 3.472-3.847 4.917-5.968 6.606-9.647 12.443-19.763 17.248-30.442 5.33-11.824 10.304-23.835 15.409-35.753 0.563-1.314 1.089-2.646 1.67-4.11 3.322 0.244 6.1 1.595 8.84 3.115 9.647 5.311 17.998 12.368 25.675 20.176 32.713 33.257 55.516 72.182 64.918 118.482 4.317 21.283 4.955 42.753 1.464 64.28-0.544 3.359-0.976 6.719-2.158 10.172-0.3-0.544-0.657-1.089-0.882-1.652-8.033-19.95-21.302-35.828-37.836-49.041-21.827-17.435-46.807-27.476-74.152-31.718-15.089-2.346-30.179-2.196-45.212 0.863-2.778 0.563-2.965 0.694-4.654 4.035-4.579-2.346-9.065-4.861-13.738-6.982-12.105-5.499-24.286-10.848-36.447-16.216-1.032-0.45-2.177-0.938-3.247-0.92-0.826 0.019-2.196 0.676-2.346 1.295-0.225 0.901 0.113 2.384 0.769 2.965 1.032 0.901 2.496 1.333 3.829 1.858 25.994 10.379 50.73 23.235 74.096 38.756 31.868 21.189 60.602 46.075 85.169 75.616 12.706 15.277 24.511 31.286 33.745 49.060 4.523 8.708 8.389 17.736 11.204 27.157 4.317 14.376 8.896 28.677 12.65 43.204 6.4 24.811 8.371 50.148 6.85 75.729-2.703 45.25-16.535 86.858-40.070 125.314-19.969 32.619-45.287 60.208-75.316 83.555-32.9 25.581-69.404 43.88-108.986 56.21-16.553 5.142-33.407 8.746-50.505 11.392-12.143 1.877-24.342 3.247-36.616 3.96-2.29 0.131-4.636-0.15-6.85 0.3-2.721 0.544-4.467-1.989-6.832-1.802-2.327 0.206-4.204 1.896-6.85 1.839-13.87-0.338-27.72-0.807-41.515-2.534-18.017-2.252-35.847-5.574-53.414-10.153-19.387-5.067-38.23-11.805-56.567-19.875-35.978-15.821-69.273-36.203-99.827-61.165-29.428-24.061-55.178-51.593-77.211-82.748-15.296-21.621-28.19-44.574-38.512-68.972-11.073-26.144-19.031-53.207-22.559-81.547-1.933-15.409-2.872-30.798-2.215-46.301 1.408-33.088 8.934-64.581 23.441-94.328 18.918-38.775 46.113-70.474 80.44-96.073 30.104-22.465 63.492-38.174 99.114-49.303 20.757-6.475 41.909-11.298 63.398-14.564 21.095-3.191 42.359-4.692 63.68-4.279 10.998 0.225 21.959 1.37 32.938 2.083 0.995 0.075 2.008 0.15 3.003 0.188 1.802 0.056 3.528-0.094 3.96-2.346 0.319-1.727-0.938-3.003-3.603-3.416-2.684-0.413-5.386-0.657-8.089-0.92-19.537-1.971-39.094-2.721-58.687-1.67-10.548 0.563-21.076 1.802-31.568 2.947-2.215 0.244-3.359-0.45-4.617-2.121-20.382-27.157-37.93-56.060-52.644-86.746-9.497-19.781-18.205-39.882-25.956-60.414-0.507-1.333-0.845-2.74-1.257-4.11-3.435 0-6.869 0-10.304 0 2.853 7.695 5.518 15.484 8.596 23.085 11.899 29.485 25.468 58.143 41.834 85.394 9.309 15.484 19.481 30.329 31.624 43.711 0.544 0.601 0.995 1.314 1.802 2.384-4.898 0.92-9.365 1.745-13.813 2.59-34.608 6.494-67.846 17.173-99.358 33.088-32.694 16.516-61.859 37.893-86.502 65.294-29.71 33.050-50.467 70.943-60.151 114.785-2.759 12.443-4.654 24.999-5.236 37.724-0.3 6.212-0.751 12.424-0.694 18.637 0.244 27.626 4.392 54.652 12.143 81.172 9.891 33.82 24.68 65.313 43.748 94.741 25.6 39.544 56.829 73.927 93.896 102.811 1.689 1.314 3.378 2.665 5.011 3.96 0.113 13.963-4.185 27.063-6.756 40.445-0.038 0.263-0.3 0.469-0.638 0.938-5.274-1.22-10.623-2.609-16.028-3.716-11.092-2.271-22.296-3.679-33.613-3.716-3.566 0-7.132 0.394-10.679 0.694-0.826 0.056-1.67 0.394-2.44 0.769-1.558 0.751-2.552 1.914-2.064 3.791 0.432 1.633 2.196 2.346 4.166 2.177 3.81-0.357 7.657-0.938 11.43-0.676 15.728 1.126 31.155 4.035 46.207 8.84 0.394 0.131 0.732 0.432 1.483 0.882-1.276 5.48-2.552 11.054-3.866 16.647-10.529 44.855-22.916 89.204-35.077 133.628-0.563 2.271-1.295 4.504-1.614 6.775-0.263 2.027-0.056 4.129-0.056 6.456-0.713-0.225-1.877-0.526-3.022-0.938-11.58-4.204-22.897-9.009-33.613-15.165-5.743-3.284-11.242-6.944-15.821-11.805-1.464-1.558-2.778-3.303-3.96-5.086-1.389-2.102-2.215-4.354-1.164-6.963 0.657-1.633 0.432-3.228-1.464-3.923-1.783-0.657-3.022 0.375-3.847 1.877-1.483 2.684-1.82 5.705-0.619 8.389 1.558 3.51 3.453 6.982 5.818 9.985 4.148 5.236 9.59 9.084 15.183 12.631 15.99 10.135 33.426 16.966 51.349 22.559 25.168 7.845 50.824 13.569 77.024 16.347 18.956 1.989 38.005 2.308 56.98 0.038 11.786-1.408 23.498-3.679 34.402-8.633 6.231-2.815 12.462-6.043 17.848-10.191 15.878-12.162 21.001-28.584 16.872-48.084-2.965-14.038-10.041-26.031-18.449-37.33-13.307-17.83-29.616-32.525-47.502-45.475-27.983-20.251-58.331-35.809-91.1-46.507-0.938-0.319-1.858-0.694-3.266-1.22 2.215-12.387 4.448-24.774 6.738-37.574 71.9 51.143 151.007 80.346 240.155 80.74-0.526 5.217-1.032 10.003-1.539 14.902-6.963 0.225-13.532 0.15-20.044 0.732-5.949 0.507-11.88 1.577-17.755 2.721-2.027 0.394-4.073 1.464-5.762 2.74-1.126 0.845-1.896 2.496-2.29 3.923-0.394 1.464 0.263 2.909 1.858 3.472 1.408 0.488 2.29-0.225 3.247-1.37 0.938-1.126 2.29-2.308 3.641-2.571 11.43-2.346 22.991-2.646 34.571-1.501 0.282 0.019 0.526 0.206 1.182 0.488-5.781 46.807-16.779 92.658-27.139 138.996-1.22-0.507-2.158-0.769-2.984-1.22-7.338-3.979-14.301-8.521-20.082-14.658-3.397-3.585-6.231-7.507-7.376-12.518-0.544-2.459-1.783-3.359-3.435-3.003-1.539 0.338-2.534 1.933-2.233 4.129 0.563 4.242 2.308 8.033 4.692 11.524 5.48 8.014 12.931 13.813 21.001 18.918 1.82 1.164 3.66 2.252 5.537 3.284 1.52 0.826 2.947 1.558 3.491 3.491 0.526 1.839 2.215 2.496 3.791 1.745 1.595-0.788 2.759-0.169 4.035 0.413 23.010 10.322 47.201 16.403 71.9 20.739 21.658 3.81 43.467 5.274 65.369 4.073 20.063-1.089 39.863-4.091 58.2-13.044 5.48-2.684 10.885-5.968 15.502-9.947 12.95-11.129 17.098-25.506 13.607-42.209-2.177-10.36-6.888-19.556-12.856-28.152-9.722-14.020-21.883-25.562-35.378-35.734-27.157-20.476-57.561-34.158-90.011-43.429-15.108-4.317-30.404-7.939-45.982-10.172-3.097-0.432-6.212-0.638-9.647-0.976 0.282-5.368 0.544-10.36 0.826-15.615 5.781-0.357 11.336-0.45 16.816-1.051 12.781-1.408 25.562-2.759 38.287-4.673 27.833-4.185 54.577-12.556 80.44-23.573 29.653-12.631 57.092-29.109 82.241-49.585 20.983-17.098 39.582-36.447 55.647-58.2 23.817-32.206 40.933-67.734 49.998-107.071 6.512-28.302 8.314-56.905 5.555-85.77-1.783-18.599-5.612-36.842-11.336-54.634-3.228-10.041-6.269-20.119-9.684-30.085-5.949-17.342-14.864-33.107-25.393-48.027-33.050-46.826-75.091-83.48-123.981-112.401-1.107-0.657-2.215-1.314-3.322-1.971-0.225-0.15-0.413-0.375-1.164-1.051 3.941-0.394 7.376-0.938 10.81-1.070 33.839-1.164 65.219 7.076 93.446 26.144 18.881 12.725 33.839 29.278 44.555 49.623 1.013 1.914 1.914 3.904 2.646 5.912 1.295 3.66 2.778 7.282 2.158 11.336-0.225 1.389 0.225 2.853 1.708 3.059 1.107 0.131 2.684-0.206 3.416-0.976 1.164-1.182 2.083-2.815 2.552-4.429 2.064-7.038 4.335-14.076 5.781-21.264 2.928-14.526 3.622-29.259 2.872-44.048-1.089-21.414-5.856-42.003-13.382-62.009-8.371-22.24-20.344-42.266-34.664-61.090-9.234-12.143-19.819-22.822-31.474-32.45-8.877-7.338-18.224-14.001-29.822-16.985 1.107-3.397 2.102-6.55 3.134-9.666 6.512-19.462 11.73-39.281 15.821-59.401 0.113-0.563 0.131-1.145 0.188-1.708-3.134-0.038-6.287-0.038-9.44-0.038zM423.237 770.387c3.003 0.3 5.574 0.338 8.070 0.845 10.060 2.083 20.138 4.073 30.104 6.531 31.812 7.826 62.16 19.35 89.936 37.198 17.379 11.167 33.107 24.248 45.531 41.027 5.874 7.92 10.566 16.497 12.762 26.256 3.247 14.47-0.469 26.688-12.368 35.734-4.204 3.172-8.821 5.931-13.588 8.127-15.953 7.357-33.013 10.135-50.298 11.261-19.293 1.276-38.549 0.432-57.73-2.29-19.688-2.796-39.056-6.982-57.956-13.213-7.958-2.628-15.746-5.818-23.798-8.821 12.331-47.183 23.085-94.103 29.334-142.655zM168.030 712.094c1.239 0.338 2.215 0.526 3.134 0.863 35.152 12.499 67.903 29.578 97.35 52.794 16.103 12.687 30.573 27.007 41.928 44.311 5.311 8.127 9.572 16.76 11.655 26.35 3.51 16.197-1.201 29.428-14.207 39.45-5.349 4.129-11.336 7.207-17.679 9.59-16.704 6.287-34.139 8.070-51.743 8.558-16.891 0.469-33.707-1.051-50.392-3.66-18.918-2.947-37.536-7.301-55.891-12.8-3.603-1.089-7.151-2.346-11.186-3.679 3.735-1.577 3.754-1.577 4.805-4.579 0.619-1.764 1.22-3.547 1.745-5.349 13.138-44.105 25.356-88.472 36.035-133.271 1.464-6.156 2.947-12.312 4.448-18.58zM662.472-46.827c-5.48 26.632-12.819 52.757-22.334 78.206-4.692 12.537-9.816 24.924-15.296 37.123-2.721 6.062-5.668 12.049-8.69 17.961-2.759 5.386-8.145 11.955-9.722 17.36 0-2.402 0-4.805 0-7.207-0.056 0.019-0.113 0.038-0.15 0.056-2.665-2.083-5.349-4.148-8.014-6.231 0.582 0.094 1.164 0.188 1.745 0.3-2.384 0-4.748 0-7.132 0-4.542 1.595-1.37-0.413 0.357-2.965 1.783-2.646 3.453-5.368 5.105-8.070 3.322-5.443 6.25-11.092 9.027-16.835 6.212-12.856 11.768-26.238 17.079-39.525 2.984-7.488 8.596-10.717 16.497-9.478 20.739 3.266 39.056 24.53 52.231 39.525 14.451 16.441 26.913 34.721 36.748 54.333 20.495 40.858 32.356 94.084 19.162 139.071-3.191 10.904-18.824 13.851-24.53 3.228-6.681-12.481-12.143-23.967-21.902-34.496-9.797-10.566-21.489-18.993-34.008-25.919-12.556-6.944-26.294-11.223-40.239-14.207-7.451-1.595-14.939-2.365-22.559-2.665-4.636-0.169-9.29 0.094-13.907 0.432-2.308 0.169-4.579 0.469-6.85 0.882-4.617 1.314-4.654 0.807-0.094-1.539-3.585 6.775-12.049 8.145-18.355 4.861-8.521-4.41-17.098-8.521-25.862-12.443-7.582-3.378-16.197-8.915-24.38-10.322 2.365 0 4.748 0 7.132 0 1.182-0.732 2.384-1.464 3.566-2.196 1.314-3.191 2.628-6.4 3.923-9.59 0.019 0.526 0.038 1.070 0.056 1.595-0.619-2.29-1.22-4.561-1.839-6.85-1.164-0.995-2.327-2.008-3.491-3.003 1.989 0.788 3.979 1.614 5.968 2.44 3.059 1.257 6.1 2.59 9.14 3.904 5.912 2.552 11.73 5.293 17.529 8.127 12.537 6.118 24.68 13.025 36.522 20.401 21.977 13.719 42.716 29.728 61.897 47.22 19.218 17.529 36.279 37.292 51.668 58.293 16.403 22.371 26.819 46.47 34.89 72.951 8.521 27.964 15.202 55.572 16.309 84.944 1.032 26.801-2.459 54.014-9.178 79.914-12.95 49.942-40.971 95.492-76.348 132.333-33.032 34.402-73.477 60.358-117.112 78.675-23.235 9.778-47.464 16.685-72.219 21.227-12.255 2.252-24.642 3.885-37.048 5.124-5.968 0.601-11.955 1.032-17.961 1.089-4.654 0.019-8.783-1.426-12.631-2.046 2.365 0 4.748 0 7.132 0-12.537 3.266-25.205 2.008-38.118 1.126-14.845-1.013-29.635-3.322-44.236-6.025-27.551-5.086-54.277-13.513-80.045-24.492-48.909-20.814-93.671-50.242-132.483-86.821-78.375-73.852-133.459-183.795-118.388-294.076 10.979-80.421 61.446-148.098 128.692-190.345 35.997-22.615 76.968-37.179 118.201-46.282 22.127-4.88 44.705-7.901 67.302-9.234 11.148-0.657 22.334-0.713 33.501-0.244 10.266 0.432 20.814 2.44 31.080 1.952-2.252 0.619-4.523 1.22-6.775 1.858-0.845 0.863-1.708 1.727-2.571 2.59-0.619 2.29-1.22 4.561-1.839 6.85-0.075-0.526-0.131-1.051-0.206-1.558 1.314 3.191 2.628 6.4 3.923 9.59 3.172 1.52 3.397 2.008 0.694 1.464-3.191-0.357-6.4-0.619-9.59-0.92-6.888-0.619-13.794-0.976-20.701-1.257-12.706-0.507-25.431-0.225-38.118 0.713-11.261 0.807-24.098 4.974-34.664-0.15-4.317-2.083-7.244-7.789-9.966-11.486-3.885-5.274-7.62-10.66-11.317-16.084-13.494-19.875-25.393-40.82-35.997-62.404-11.092-22.54-23.066-46.507-29.991-70.755 4.298 3.322 8.615 6.644 12.931 9.966-3.435 0-6.869 0-10.304 0 4.298-5.724 8.615-11.448 12.931-17.173 10.379 28.283 22.071 55.778 36.147 82.391 6.588 12.443 13.719 24.567 21.396 36.335 7.545 11.58 16.929 21.471 24.961 32.619 4.88 6.775 0.019 18.411-8.014 19.932-52.4 9.834-101.854 25.562-146.447 55.854-39.807 27.045-73.251 66.345-91.813 111.219-42.19 101.985-3.341 216.339 63.079 297.679 16.009 19.613 33.989 37.517 53.245 53.827 4.711 3.979 9.572 7.789 14.414 11.599 7.151 5.63 6.681 12.706 5.874 21.114-0.638 6.456-1.914 12.819-3.303 19.143-1.351 6.118-1.877 14.32-5.386 19.575-3.491 5.236-8.971 7.695-15.146 6.231-9.666-2.308-19.312-4.711-29.203-5.931-4.467-0.563-8.99-0.788-13.494-0.976-2.008-0.075-4.035-0.075-6.062 0-0.882 0.056-1.783 0.113-2.665 0.169-4.354 0.882-3.791-0.244 1.708-3.359 0.619-2.29 1.22-4.561 1.839-6.85 0 0.544 0.019 1.107 0.019 1.652-0.601-2.29-1.22-4.561-1.839-6.85-0.826-0.938-1.67-1.877-2.496-2.815-2.271-0.619-4.523-1.239-6.775-1.858 4.41 0.3 8.84-0.638 13.288-0.544 6.756 0.131 13.626 1.389 20.307 2.365 10.885 1.595 24.605 3.416 34.158 9.196 5.311 3.247 7.563 9.328 6.156 15.333-6.081 26.256-12.518 52.419-19.406 78.488-3.622 13.701-7.338 27.364-11.073 41.046-3.453 12.612-9.947 27.195-9.666 40.314 0.188 8.765-8.727 15.484-16.985 13.081-15.465-4.486-31.005-11.861-44.687-20.382-13.663-8.502-25.543-20.701-21.921-37.836 0 2.402 0 4.805 0 7.207-0.15-0.45-0.3-0.901-0.432-1.37 2.046 2.703 4.11 5.405 6.175 8.108-0.469-0.319-0.92-0.638-1.37-0.957 2.252 0.619 4.504 1.239 6.756 1.858-0.751 0.038-1.52 0.094-2.29 0.131 3.153-1.314 6.325-2.646 9.478-3.96 0.45-4.523 1.276-4.898 2.515-1.126 1.351 2.459 3.022 4.242 4.974 6.212 3.228 3.266 7.432 5.593 11.298 7.995 8.765 5.424 18.167 9.741 27.739 13.438 21.771 8.427 44.724 14.207 67.621 18.486 22.127 4.148 44.668 5.818 67.152 4.673 20.908-1.070 44.161-5.18 60.395-19.631 31.455-28.002-13.626-74.809-34.514-93.221-31.474-27.758-68.691-44.405-107.259-59.1-7.32-2.796-10.773-8.877-9.384-16.685 2.252-12.518 4.504-25.055 6.756-37.574 1.483-8.258 12.95-12.875 19.706-8.108 69.235 48.947 148.455 78.187 233.399 78.901 6.738 0.056 14.17 6.156 13.419 13.569-0.507 4.974-1.013 9.928-1.539 14.902-0.769 7.507-5.518 13.363-13.419 13.569-6.681 0.169-13.363 0.225-20.044 0.713-2.796 0.206-5.537 0.676-8.295 1.145-1.971 0.357-3.923 0.713-5.893 1.107-2.346 0.769-1.689-0.694 1.989-4.354-1.314-3.191-2.628-6.4-3.923-9.59 0.563 0.45 1.126 0.92 1.689 1.389-3.153-1.333-6.325-2.646-9.478-3.979 0.601-0.019 1.182-0.038 1.783-0.056-3.153 1.314-6.325 2.646-9.478 3.96 7.77-6.907 14.733-8.22 24.905-9.403 8.408-0.995 21.058-2.29 29.015 1.051 5.049 2.102 10.641 6.681 9.834 13.081-6.081 48.14-17.023 95.323-27.608 142.618-1.501 6.719-9.872 12.012-16.497 9.459-9.102-3.491-16.891-8.915-24.455-15.052-3.716-3.022-7.094-6.832-9.816-10.792-1.408-2.083-2.515-4.054-3.491-6.362-0.45-1.089-0.901-2.158-1.351-3.247-1.164-3.453-0.882-3.228 0.826 0.657 3.153 1.314 6.325 2.646 9.478 3.96-0.507-0.019-0.995-0.038-1.501-0.075 2.271-0.619 4.523-1.239 6.775-1.858 0.901-0.901 1.783-1.802 2.684-2.721 0.601-2.29 1.22-4.561 1.82-6.85-0.375 6.944 9.271 14.001 14.189 17.548 3.754 2.721 7.77 4.992 11.749 7.301 1.37 0.995 2.684 2.046 3.941 3.191 0.694 0.92 1.389 1.839 2.102 2.74 1.539 2.628 0.938 2.215-1.783-1.257-3.453-0.45-6.888-0.901-10.341-1.37 9.741-1.858 15.915 1.652 24.83 5.124 10.135 3.923 20.57 6.982 31.061 9.684 20.588 5.293 41.665 8.671 62.892 9.759 20.513 1.051 41.477 0.038 61.446-5.011 17.023-4.298 37.067-12.969 41.064-31.981 3.585-17.079-10.679-35.64-21.095-47.314-12.65-14.17-28.265-25.299-44.443-34.927-34.42-20.513-76.217-33.801-115.949-37.461-6.963-0.657-13.832-5.687-13.419-13.569 0.282-5.199 0.563-10.397 0.826-15.615 0.394-7.695 5.799-13.156 13.419-13.569 55.046-2.947 107.728-14.864 156.769-40.877 45.419-24.098 85-59.175 113.903-102.023 29.71-44.067 46.15-95.867 46.132-149.262-0.019-28.246-5.762-55.14-14.245-81.903-4.054-12.837-7.807-25.768-13.55-37.949-5.874-12.462-13.494-24.004-21.546-35.115-16.685-23.028-36.71-43.598-58.181-62.047-10.322-8.858-21.208-16.947-32.394-24.642-10.341-7.113-23.085-12.575-32.3-21.095-9.497-8.783-1.182-21.959 9.497-23.16 36.898-4.091 74.040 4.279 105.87 23.573 14.658 8.896 27.795 20.438 38.606 33.801 5.461 6.756 10.285 13.945 14.545 21.508 5.368 9.459 7.038 18.036 8.22 28.602-2.215-3.904-4.429-7.807-6.644-11.711 0.488 0.357 0.995 0.732 1.501 1.089-2.252-0.619-4.523-1.239-6.775-1.858 0.619-0.056 1.239-0.094 1.858-0.15-2.252 0.619-4.504 1.22-6.775 1.858-1.839 2.74-2.233 2.684-1.145-0.169 0.901-3.022 1.783-6.043 2.646-9.084 1.483-5.217 2.534-10.529 3.435-15.896 1.839-11.054 1.67-22.559 1.201-33.726-0.976-22.991-7.244-46.132-16.46-67.077-8.84-20.101-21.076-39.225-35.303-55.835-12.556-14.639-28.828-31.099-47.708-36.541-6.775-1.952-11.655-9.609-9.365-16.704 3.51-10.81 7.057-21.583 10.172-32.525 3.153-11.092 7.226-23.178 8.502-34.646 4.467 4.523 8.952 9.046 13.419 13.569-3.153 0-6.287 0-9.44 0-17.304 0-17.304-27.12 0-27.12 3.153 0 6.287 0 9.44 0 6.681 0 14.226 6.193 13.419 13.569-2.796 25.318-11.843 50.298-19.631 74.396-3.134-5.555-6.25-11.129-9.365-16.685 20.194 5.818 36.635 20.044 51.33 34.683 16.234 16.14 29.635 35.753 40.633 55.816 23.16 42.266 32.412 91.719 24.492 139.409-1.708 10.247-4.673 20.72-8.783 30.235-4.654 10.792-19.744 12.556-27.514 4.692-4.166-4.204-3.191-8.633-4.035-13.776-0.92-5.612-4.467-10.867-7.301-15.652-5.161-8.69-11.561-16.366-18.674-23.479-29.879-29.916-73.327-41.59-114.353-37.029 3.153-7.732 6.325-15.446 9.478-23.16 2.515 2.327-3.003-1.933 1.783 0.901 2.571 1.52 5.105 3.078 7.657 4.636 5.067 3.115 10.041 6.362 14.977 9.666 10.773 7.188 21.095 14.996 31.23 23.066 19.181 15.277 36.766 32.506 52.719 51.18 16.816 19.65 32.3 41.027 42.941 64.768 11.242 25.112 19.481 53.32 24.398 80.402 19.65 108.104-29.316 215.813-111.989 283.772-31.042 25.524-65.857 44.799-103.186 59.138-39.657 15.24-81.903 21.471-124.094 23.723 4.467-4.523 8.952-9.046 13.419-13.569-0.282 5.199-0.563 10.416-0.826 15.615-4.467-4.523-8.952-9.027-13.419-13.569 45.888 4.242 92.376 19.050 132.108 42.716 35.321 21.058 77.474 57.205 76.292 102.698-1.295 50.017-63.060 63.098-101.835 65.406-25.28 1.501-50.523-1.126-75.372-5.743-23.479-4.373-45.081-11.918-67.358-20.288 2.365 0 4.748 0 7.132 0-6.55 0.92-12.931 1.745-18.111-3.491-1.145-1.276-2.121-2.684-2.965-4.185 2.177 2.008 1.689 1.933-1.483-0.225-3.397-1.952-6.625-4.204-9.797-6.512-11.336-8.202-22.071-19.444-24.793-33.726-3.247-17.041 14.414-27.176 27.326-16.291 4.166 3.51 4.41 10.322 8.145 14.47 4.392 4.898 11.805 10.36 17.173 12.406-5.499 3.153-10.998 6.306-16.497 9.478 10.041-44.874 20.889-89.711 26.651-135.392 3.284 4.354 6.569 8.727 9.853 13.081-4.091-1.708-10.623-0.676-14.977-0.563-3.416 0.075-6.85 0.413-10.229 0.92-2.552 0.394-2.684 1.577-5.349 3.153-11.805 7-22.822-3.547-23.835-15.108-1.013-11.373 11.655-18.543 20.814-20.307 12.8-2.44 25.449-3.022 38.418-3.359-4.467 4.523-8.952 9.046-13.4 13.569 0.507-4.974 1.013-9.928 1.52-14.902 4.467 4.523 8.952 9.046 13.419 13.569-89.392-0.732-173.96-31.005-246.93-82.598 6.569-2.703 13.138-5.405 19.706-8.108-2.252 12.518-4.504 25.036-6.756 37.574-3.115-5.555-6.25-11.129-9.365-16.685 23.648 9.009 46.714 17.755 68.803 30.404 22.071 12.631 43.054 27.964 61.259 45.869 31.999 31.474 63.623 89.336 19.331 124.995-21.358 17.191-48.59 22.259-75.128 23.985-28.19 1.839-56.792-1.952-84.381-7.62-26.688-5.499-53.207-13.532-77.906-25.243-18.655-8.84-53.076-29.578-42.979-55.422 3.378-8.615 14.583-16.291 23.573-9.985 8.295 5.818 8.934 12.349 7.151 21.733 0-2.402 0-4.805 0-7.207 1.595 7.601 15.165 13.288 21.152 16.478 8.69 4.636 18.055 8.746 27.533 11.505-5.668 4.354-11.317 8.708-16.985 13.081-0.3-13.832 5.124-27.495 8.746-40.708 3.754-13.663 7.47-27.345 11.129-41.027 7.582-28.321 14.62-56.773 21.227-85.338 2.064 5.105 4.11 10.21 6.175 15.315-5.574-3.378-14.789-4.054-21.114-5.311-7.432-1.483-15.052-2.459-22.634-2.609-7.094-0.15-11.918 1.37-18.674-1.971-6.193-3.040-8.746-11.993-7.038-18.299 4.035-14.845 23.010-13.832 34.927-13.363 15.746 0.619 31.174 4.11 46.432 7.751-5.049 2.083-10.097 4.166-15.146 6.25 2.158-3.209 2.459-12.143 3.341-16.178 1.351-6.137 2.121-12.124 2.215-18.374 1.314 3.191 2.628 6.4 3.923 9.59-82.504-65.613-145.452-157.37-157.201-264.854-5.781-52.832 4.692-106.565 29.466-153.353 23.441-44.217 60.076-80.759 101.816-107.334 43.598-27.758 92.526-42.528 142.787-51.969-2.684 6.644-5.349 13.288-8.014 19.932-6.907-9.59-17.473-21.396-24.961-32.619-8.389-12.593-15.84-25.844-22.916-39.244-14.639-27.664-26.538-56.585-37.33-85.976-3.078-8.389 4.786-17.173 12.931-17.173 3.435 0 6.869 0 10.304 0 6.025 0 11.28 4.148 12.931 9.947 7.488 26.181 20.776 51.912 33.201 76.010 6.512 12.612 13.644 24.905 21.17 36.935 3.472 5.555 7.094 10.998 10.773 16.422 2.609 3.847 7.864 14.189 11.261 15.84-2.252-0.619-4.504-1.239-6.756-1.858 13.231 0.488 27.063-2.684 40.37-3.172 14.958-0.563 29.972 0.094 44.893 1.314 10.641 0.863 27.739 0.188 31.324 13.382 1.558 5.687 0.113 12.143-4.073 16.384-5.142 5.199-12.274 4.748-18.937 4.298-28.021-1.952-55.366-2.365-83.33 1.032-27.739 3.359-55.215 10.304-81.641 19.35-94.891 32.469-173.379 111.876-181.017 216.357-8.070 110.656 58.312 214.124 141.21 280.356 41.74 33.369 90.987 58.5 142.28 72.688 27.514 7.601 55.722 11.711 84.174 12.762 2.815 0.113 6.512 0.826 9.271 0.394 2.834-0.469 4.88-1.914 7.976-1.914 2.984 0 5.781 0.863 8.446 2.121-3.566-1.689 1.52-0.582 2.928-0.582 14.076-0.094 28.321-2.327 42.19-4.636 102.698-17.135 195.769-82.373 238.597-179.553 21.621-49.078 25.956-106.377 12.349-158.177-7.094-26.988-14.845-53.564-29.409-77.455-13.457-22.052-30.761-41.871-49.041-59.926-32.056-31.68-70.042-57.017-110.637-76.029-4.786-2.233-9.647-4.335-14.526-6.344-5.236-2.158-11.936-3.81-14.827-9.309-5.33-10.097-1.539-20.926 9.59-24.192 9.834-2.89 23.235 6.55 31.831 10.341 10.81 4.786 21.452 9.703 31.943 15.146-6.118 1.614-12.237 3.247-18.355 4.861 4.41-8.314 10.867-10.097 19.594-11.486 11.599-1.858 23.197-2.102 34.871-1.051 19.312 1.745 37.78 7.132 55.516 14.808 16.985 7.357 32.394 18.468 45.813 31.23 13.513 12.837 21.414 27.852 30.085 44.011-8.183 1.089-16.347 2.158-24.511 3.247 11.223-38.268 0.488-83.311-16.441-118.163-8.183-16.816-18.693-32.431-30.686-46.676-10.229-12.162-25.693-32.112-42.266-34.721 5.499-3.153 10.998-6.306 16.497-9.478-9.309 23.272-18.768 47.051-32.168 68.24-5.949 9.403-12.706 20.194-25.262 18.092-12.593-2.083-15.202-16.966-9.59-26.632 25.787-44.611 42.922-93.765 53.339-144.269 3.566-17.116 29.428-9.853 25.919 7.207zM423.237 756.837c42.472 3.528 86.915 18.918 123.981 39.826 34.12 19.237 73.683 51.086 76.892 93.483 3.679 48.703-62.873 59.532-97.556 61.165-46.864 2.177-92.658-8.746-136.237-25.168-6.907-2.59-11.355-9.046-9.384-16.685 11.936-45.794 22.69-92.057 28.865-139.071 0.995-7.32 5.405-13.55 13.438-13.55 6.588 0 14.395 6.212 13.419 13.569-6.494 49.472-17.248 98.044-29.822 146.278-3.134-5.555-6.25-11.129-9.384-16.685 36.391 13.701 73.064 23.235 112.101 24.342 18.562 0.526 37.33-0.732 55.29-5.649 14.076-3.866 32.619-11.392 32.431-28.546-0.15-15.521-13.307-29.86-23.385-40.182-12.499-12.8-27.533-22.728-42.997-31.436-16.403-9.253-33.876-16.14-51.762-21.79-17.848-5.612-37.254-11.242-55.91-12.781-17.098-1.426-17.229-28.565 0.019-27.12zM171.596 699.012c17.773 4.561 35.378 13.438 51.706 21.733 18.374 9.346 35.715 20.588 51.987 33.276 28.321 22.071 62.854 55.835 61.24 95.191-1.802 43.673-53.808 55.553-88.191 57.937-43.973 3.040-89.317-6.269-130.907-20.213-9.834-3.303-14.714-19.706-3.191-24.793 6.456-2.853-3.097 8.615-0.45 0.863 1.070-3.115 1.914-6.306 2.853-9.478 2.008-6.794 3.979-13.588 5.949-20.382 3.923-13.607 7.732-27.251 11.448-40.914 7.545-27.795 14.376-55.76 21.076-83.762 4.073-17.004 29.935-9.778 25.862 7.207-7.263 30.329-14.733 60.546-22.953 90.612-4.035 14.808-8.239 29.56-12.537 44.274-3.435 11.824-5.217 29.466-17.736 35.002-1.070-8.258-2.121-16.516-3.191-24.793 34.514 11.58 70.68 19.387 107.128 19.744 17.567 0.169 35.021-1.577 51.8-7.038 12.387-4.016 25.712-12.331 26.294-26.744 0.601-14.47-9.422-28.828-17.905-39.563-10.717-13.55-23.835-25.149-37.574-35.434-14.020-10.491-29.053-19.556-44.555-27.608-14.245-7.413-29.71-15.014-45.287-19.012-16.76-4.242-9.647-30.404 7.132-26.106zM225.216 536.369c-2.046-0.544-4.242-1.051-6.381-1.689-21.058-6.344-42.097-12.668-63.154-19.050-2.046-0.619-3.998-1.501-6.006-2.29-1.445-0.563-2.909-0.751-3.772 0.826-0.938 1.689-0.263 3.228 1.257 4.091 2.215 1.276 4.523 2.515 6.925 3.341 17.848 6.081 35.584 12.481 53.601 17.98 24.042 7.338 48.328 13.794 72.951 18.843 11.73 2.421 23.573 4.317 35.378 6.419 1.67 0.3 3.284 0.094 3.754-1.896 0.45-1.952-0.845-2.965-2.421-3.528-1.595-0.582-3.266-1.013-5.236-1.595 0.638-1.051 1.164-2.008 1.783-2.872 8.464-11.805 14.545-24.736 18.899-38.681 6.794-21.771 9.29-44.048 8.314-66.72-1.126-26.369-7.113-51.481-20.626-74.359-5.63-9.534-12.668-17.848-21.564-24.436-5.593-4.148-11.692-7.263-18.505-8.746-13.738-3.003-25.374 1.314-35.378 10.81-8.070 7.676-13.438 17.21-17.83 27.345-6.043 13.982-9.647 28.696-12.012 43.729-2.984 18.918-3.735 37.986-2.609 57.092 0.788 13.438 2.74 26.744 6.625 39.676 1.614 5.293 3.941 10.36 6.006 15.709zM265.342 547.236c-0.488-4.373-1.107-8.22-1.333-12.105-0.694-12.18 0.244-24.286 2.74-36.222 3.679-17.623 10.529-33.482 24.586-45.531 5.762-4.936 12.012-7.019 19.312-6.419 7.958 0.638 13.55 5.142 15.99 12.387 3.66 10.904 4.842 22.39 3.51 33.82-0.938 7.976-3.115 15.84-5.236 23.629-3.904 14.339-10.81 27.27-19.312 39.92-13.438-3.153-26.857-6.325-40.257-9.478zM229.908 396.904c0-0.169-0.113-0.619 0-1.013 3.059-9.365 6.832-18.393 12.18-26.669 4.335-6.719 9.534-12.612 16.666-16.497 4.636-2.515 9.59-3.847 14.808-3.51 8.070 0.507 15.165 3.81 21.546 8.708 12.068 9.253 20.082 21.564 26.050 35.415 0.15 0.357 0.075 0.788 0.131 1.52-0.619-0.582-1.070-0.901-1.408-1.314-7.263-8.295-16.253-13.494-27.045-15.484-7.488-1.37-15.052-1.295-22.634-1.351-10.566-0.056-19.969 3.191-28.246 9.628-4.223 3.303-8.108 7.076-12.049 10.566zM547.068 596.276c8.127-12.95 12.95-26.35 16.028-40.389 6.606-30.235 9.816-60.79 7.301-91.757-1.089-13.438-3.453-26.651-8.615-39.206-2.89-7-6.663-13.438-11.993-18.843-13.776-13.963-31.249-15.221-46.845-3.303-8.615 6.588-14.789 15.258-19.969 24.661-7.582 13.719-12.518 28.49-16.253 43.692-4.767 19.556-7.62 39.413-8.934 59.495-0.788 12.030-0.957 24.004 1.22 35.884 0.826 4.523 2.384 8.896 3.622 13.325 0.488 1.783 1.032 3.547 1.595 5.518-1.971 0.563-4.298 0.582-4.148 3.134 0.15 2.346 2.233 2.928 3.998 3.303 8.802 1.839 17.586 3.847 26.444 5.255 11.974 1.914 24.023 3.416 36.072 4.936 6.25 0.788 12.518 1.445 18.768 1.783 14.996 0.807 29.991 1.408 44.987 2.083 0.995 0.038 2.008 0.019 3.003-0.075 2.552-0.263 3.96-1.464 3.754-3.247-0.263-2.196-1.858-2.646-3.735-2.74-4.992-0.263-10.003-0.488-14.977-0.882-10.21-0.807-20.438-1.708-31.324-2.628zM503.451 591.941c-0.3-1.464-0.638-2.684-0.807-3.941-2.252-16.441-1.914-32.863 0.526-49.247 1.333-9.027 3.397-17.886 7.413-26.144 2.102-4.317 4.73-8.258 8.502-11.298 6.062-4.917 14.189-5.574 20.757-1.389 8.371 5.33 13.776 13.025 15.934 22.728 1.67 7.526 1.633 15.258 0.601 22.878-1.539 11.336-4.654 22.334-8.389 33.107-2.008 5.799-5.011 11.261-7.639 17.023-12.556-1.239-24.605-2.459-36.898-3.716zM486.541 438.194c0.188-0.469 0.338-0.976 0.563-1.445 3.209-6.982 7.244-13.457 12.068-19.387 4.11-5.067 8.821-9.478 14.733-12.387 4.448-2.177 9.084-3.266 14.095-2.628 8.877 1.145 15.183 6.306 20.326 13.213 5.236 7.038 8.295 15.108 10.304 23.61 0.094 0.413 0 0.882 0 1.82-9.703-11.317-21.677-16.084-35.584-16.61-14.020-0.507-25.768 4.936-36.504 13.813zM426.465 328.908c-0.638-1.389-1.107-2.421-1.577-3.453-8.108-17.435-21.658-27.57-40.426-30.442-14.489-2.215-27.27 1.727-37.574 12.368-13.063 13.494-13.851 34.946-1.989 49.491 5.199 6.362 11.936 9.853 20.251 9.29 1.858-0.131 3.81-1.089 5.386-2.158 0.694-0.488 0.92-2.384 0.582-3.378-0.206-0.638-2.027-1.314-2.796-1.051-5.874 2.008-10.416-0.751-14.451-4.298-12.668-11.129-12.368-32.243 0.526-43.88 6.306-5.705 13.776-8.521 22.259-8.783 14.583-0.45 26.463 5.18 35.753 16.347 4.579 5.499 7.639 11.843 7.995 19.237 0.113 2.177 0.845 4.035 3.172 4.579 2.252 0.526 3.81-0.638 5.049-2.459 2.027-2.965 3.904-6.081 6.25-8.783 8.333-9.759 18.674-15.165 31.699-13.945 18.393 1.745 33.726 17.342 35.565 32.544 0.676 5.537-0.432 10.679-3.209 15.39-1.67 2.834-3.772 5.443-5.743 8.089-1.295 1.727-2.759 3.322-4.11 5.011-2.196 2.759-2.44 4.298-0.976 5.668 1.389 1.314 2.834 1.22 5.386-0.713 8.802-6.644 15.052-14.958 16.553-26.313 0.732-5.461-0.188-10.66-1.971-15.746-5.968-16.872-23.385-31.812-44.837-32.131-11.805-0.169-21.977 4.561-30.498 12.8-2.102 1.989-3.941 4.204-6.269 6.719zM470.87 684.111c10.041 0.056 17.586-3.904 23.591-10.867 5.199-6.006 8.295-13.081 9.628-20.945 0.413-2.496 0.507-5.049-1.107-7.038-0.732-0.901-2.44-1.52-3.603-1.37-1.652 0.188-1.896 1.727-1.67 3.397 0.188 1.52 0.206 3.172-0.206 4.636-1.839 6.325-4.898 12.030-9.328 16.872-7.601 8.352-18.092 10.229-28.077 4.974-9.553-5.030-16.047-12.837-19.556-23.103-1.314-3.885-1.933-7.883-0.338-11.861 0.676-1.67 0.807-3.134-0.957-4.091-1.408-0.751-3.303 0-4.016 2.196-0.957 2.965-1.952 6.175-1.764 9.196 1.164 17.229 15.934 34.083 32.581 37.574 1.802 0.338 3.679 0.319 4.823 0.432zM211.215 595.732c1.201 15.465 6.982 29.597 19.143 40.539 10.341 9.309 22.766 10.097 34.308 2.365 8.014-5.368 13.626-12.687 15.859-22.296 0.319-1.37 0.507-2.947 0.131-4.26-0.3-1.032-1.501-2.384-2.402-2.477-0.863-0.094-1.952 1.182-2.815 2.008-0.338 0.338-0.225 1.107-0.413 1.652-3.547 9.44-9.703 16.647-18.674 21.114-6.925 3.435-13.626 2.196-19.8-2.215-4.148-2.947-7.545-6.663-10.304-10.942-5.668-8.727-9.459-18.092-9.572-28.734 0-0.826-0.113-1.802-0.544-2.459-0.413-0.619-1.389-1.351-2.008-1.257-0.826 0.094-1.614 0.882-2.327 1.52-0.263 0.244-0.282 0.807-0.319 1.22-0.094 1.145-0.15 2.308-0.263 4.223zM137.1 299.179c0 2.609-0.019 5.199 0 7.807 0 0.863 0.056 1.745 0.244 2.59 0.3 1.501 0.957 2.796 2.703 2.909 1.933 0.094 2.909-1.126 3.134-2.872 0.563-4.448 1.089-8.896 1.52-13.344 0.244-2.402-0.075-4.898 1.839-6.925 0.45-0.469 0.394-1.633 0.263-2.421-0.282-1.558-0.544-3.191-1.257-4.561-0.601-1.145-1.708-2.346-2.872-2.759-1.67-0.619-3.059 0.526-3.81 2.064-0.544 1.145-0.882 2.421-1.145 3.697-0.338 1.689-0.638 3.435-0.694 5.142-0.113 2.89-0.038 5.781-0.038 8.671 0.038 0 0.075 0 0.113 0zM689.029 423.93c0-1.577 0.056-3.172-0.019-4.748-0.094-1.689-0.769-3.134-2.552-3.566-1.989-0.488-3.585 0.488-4.091 2.271-1.032 3.716-2.046 7.507-2.365 11.336-0.282 3.397 0.3 6.907 0.638 10.341 0.169 1.877 0.488 3.866 2.928 4.129 1.877 0.225 3.322-0.995 3.81-3.866 0.751-4.542 1.145-9.14 1.652-13.719 0.075-0.713 0-1.445 0-2.177 0 0 0 0 0 0zM212.36 310.553c0-0.732 0.094-1.464-0.019-2.158-0.282-1.689-1.145-3.303-2.909-3.209-1.182 0.075-2.853 1.051-3.359 2.083-1.239 2.571-1.952 5.405-2.853 8.145-1.22 3.791-0.732 8.014-3.247 11.524-1.013 1.408 0.45 3.359 2.44 3.697 2.628 0.432 4.579-0.882 5.63-3.059 1.314-2.703 2.346-5.555 3.115-8.464 0.732-2.778 0.957-5.687 1.389-8.539-0.056-0.019-0.113-0.019-0.188-0.019zM174.749 315.864c0 1.445 0.038 2.872 0 4.317-0.056 2.008 0.713 3.397 2.74 3.735 1.952 0.319 3.378-0.619 4.054-2.421 0.507-1.333 0.788-2.778 0.976-4.204 0.357-2.571 0.488-5.161 0.901-7.732 0.3-1.802 0.788-3.585 1.389-5.311 0.788-2.233 0.188-4.504-1.67-5.668-1.839-1.164-4.185-0.601-5.424 1.783-1.051 1.989-1.745 4.26-2.158 6.494-0.563 2.965-0.732 5.987-1.070 8.99 0.056 0 0.15 0.019 0.263 0.019zM651.287 429.26c0 1.577-0.188 3.172 0.056 4.711 0.188 1.145 0.769 2.834 1.558 3.097 1.126 0.375 2.928 0.075 3.829-0.694 1.089-0.92 1.839-2.571 2.158-4.016 0.526-2.365 0.526-4.842 0.92-7.244 0.206-1.314 0.638-2.665 1.22-3.866 1.051-2.083 0.732-3.96-1.22-5.668-1.67-1.464-3.847-1.652-5.368-0.056-1.032 1.089-2.008 2.534-2.327 3.979-0.694 3.191-0.938 6.475-1.37 9.722 0.188 0 0.357 0.019 0.544 0.038zM627.883 414.077c-0.563-3.341-0.807-6.231-1.577-8.952-0.788-2.759-2.928-3.904-5.18-3.303-1.971 0.507-3.209 2.44-3.040 5.086 0.113 1.708 0.507 3.397 0.751 5.105 0.432 3.115 0.92 6.231 1.239 9.346 0.15 1.539 0.394 2.909 2.121 3.266 1.614 0.338 3.003-0.394 3.472-1.839 0.938-2.965 1.558-6.025 2.215-8.708z" />
<glyph unicode="&#xc106;" glyph-name="tixian" horiz-adv-x="1029" d="M939.808 159.607h87.627v-64.095h-192.285v192.262h64.095v-72.093c106.595 174.4 82.81 400.473-66.285 549.567-147.412 147.412-381.828 173.363-557.45 61.79l-34.364 54.116c200.744 127.499 468.717 97.814 637.148-70.594 176.913-176.889 199.96-448.919 61.514-650.953zM393.928 689.63c63.404-115.791 101.916-189.197 115.583-220.242h1.314c4.633 12.768 17.286 38.512 37.959 77.278l77.601 142.964h69.027l-137.040-233.125h107.977v-51.511h-125.793v-70.986h125.793v-52.18h-125.793v-103.345h-64.717v103.345h-130.426v52.18h130.426v70.986h-130.426v51.511h111.273l-135.704 233.125h72.945zM753.883 68.984l34.364-54.116c-83.432-53.009-178.549-78.869-273.228-78.892-133.122 0-265.484 51.050-363.897 149.463-176.866 176.913-199.937 448.942-61.56 650.976h-87.58v64.118h192.262v-192.285h-64.095v72.070c-106.572-174.4-82.764-400.473 66.285-549.521 147.412-147.435 381.874-173.409 557.45-61.813z" />
<glyph unicode="&#xc107;" glyph-name="shequ" d="M864.003 117.491v-181.491l-179.379 110.423c-24.872-4.054-50.419-6.44-76.621-6.44-123.218 0-233.578 47.167-309.755 121.655 12.541-0.718 25.019-1.647 37.772-1.647 17.883 0 35.492 0.887 52.931 2.28 60.152-41.382 136.181-66.275 219.052-66.275 28.566 0 56.204 3.251 82.786 8.804l62.369-41.572c-0.063-0.021-0.127-0.042-0.19-0.063l47.062-31.163v113.4c96.256 54.261 159.997 147.942 159.997 254.607 0 67.478-25.758 129.594-68.83 180.034 2.871 19.699 4.835 39.609 4.835 59.962 0 9.311-1.013 18.411-1.626 27.574 79.703-66.317 129.636-159.744 129.636-263.559-0.042-116.483-62.791-219.917-160.040-286.53zM415.997 232.010c-26.223 0-51.77 2.365-76.621 6.44l-179.379-110.423v181.47c-97.248 66.613-159.997 170.047-159.997 286.509 0 201.021 186.241 363.995 415.997 363.995s415.997-162.974 415.997-363.995c0-201.042-186.241-363.995-415.997-363.995zM415.997 895.984c-194.412 0-352.003-136.097-352.003-303.991 0-106.686 63.741-200.345 159.997-254.607v-113.4l47.062 31.163c-0.063 0.021-0.127 0.042-0.19 0.063l62.348 41.572c26.603-5.553 54.219-8.804 82.786-8.804 194.412 0 352.003 136.097 352.003 303.991 0 167.915-157.59 304.012-352.003 304.012zM624.007 544.003c-26.497 0-47.991 21.493-47.991 47.991s21.493 47.991 47.991 47.991 47.991-21.493 47.991-47.991c0-26.518-21.493-47.991-47.991-47.991zM432.001 544.003c-26.497 0-47.991 21.493-47.991 47.991s21.493 47.991 47.991 47.991 47.991-21.493 47.991-47.991c0-26.518-21.493-47.991-47.991-47.991zM239.996 544.003c-26.497 0-47.991 21.493-47.991 47.991s21.493 47.991 47.991 47.991 47.991-21.493 47.991-47.991c0.021-26.518-21.472-47.991-47.991-47.991z" />
<glyph unicode="&#xc108;" glyph-name="denglu" horiz-adv-x="704" d="M512.011-64h-320.004c-106.037 0-192.007 85.948-192.007 192.007v127.997c0 84.056 54.358 154.719 129.57 180.74-40.965 55.272-65.582 126.084-65.582 203.274 0.021 176.701 128.954 319.983 288.010 319.983s288.010-143.282 288.010-320.004c0-77.19-24.617-148.002-65.582-203.274 75.213-25.999 129.57-96.684 129.57-180.74v-127.997c0-106.037-85.948-191.985-191.985-191.985zM575.999 639.996c0 141.39-100.298 255.995-224.001 255.995s-224.001-114.604-224.001-255.995 100.298-255.995 224.001-255.995c123.724 0 224.001 114.604 224.001 255.995zM640.008 239.996c0 68.027-51.637 124.702-120.833 139.775-47.173-37.479-104.762-59.758-167.177-59.758s-120.004 22.279-167.177 59.758c-69.196-15.051-120.833-71.726-120.833-139.775v-96.003c0-79.528 70.323-144.005 157.1-144.005h261.82c86.756 0 157.079 64.477 157.079 144.005v96.003z" />
<glyph unicode="&#xc109;" glyph-name="jiangli" horiz-adv-x="1025" d="M1024.566 129.71c0 0-101.223-20.306-203.929-41.439-68.455-76.212-136.606-152.271-136.606-152.271l-146.737 250.422c-8.301-0.523-16.558-1.242-24.99-1.242s-16.689 0.719-24.99 1.242l-146.781-250.422c0 0-68.15 76.037-136.628 152.271-102.683 21.134-203.907 41.439-203.907 41.439l159.613 272.362c-25.709 51.505-40.546 109.241-40.546 170.529 0 213.951 176.041 387.399 393.216 387.399s393.216-173.448 393.216-387.399c0-61.287-14.837-119.002-40.546-170.529l159.613-272.362zM691.636 52.17c0 0 49.152 46.603 95.341 91.506 65.536 18.628 131.66 37.627 131.66 37.627l-92.748 158.306c-53.509-69.806-130.266-121.028-219.092-142.663l84.839-144.776zM105.908 181.302c0 0 66.146-18.977 131.682-37.627 46.189-44.903 95.341-91.506 95.341-91.506l84.839 144.754c-88.827 21.635-165.583 72.878-219.092 142.663l-92.77-158.284zM512.283 896.425c-176.564 0-319.684-143.404-319.684-320.338s143.12-320.338 319.684-320.338 319.684 143.425 319.684 320.338c0 176.934-143.12 320.338-319.684 320.338zM512.283 351.984c-123.708 0-223.995 100.308-223.995 224.016s100.287 223.995 223.995 223.995 223.995-100.287 223.995-223.995-100.287-224.016-223.995-224.016zM512.283 736.005c-88.369 0-160.005-71.636-160.005-160.005s71.636-160.005 160.005-160.005 160.005 71.636 160.005 160.005-71.636 160.005-160.005 160.005z" />
<glyph unicode="&#xc10a;" glyph-name="zhiyin" horiz-adv-x="1130" d="M847.433 112.547l-282.471-105.924-282.491 70.623-282.471-141.245v848.226l282.471 140.453 282.491-141.226 282.471 176.547 282.491-141.245v-812.132l-282.491 105.924zM1059.301 783.453l-211.868 105.924-282.471-176.547-282.491 141.226-211.848-105.924v-706.208l211.848 105.944 282.491-70.623 282.471 105.924 211.868-70.623v670.906zM847.433 760.81c0 12.262 7.904 22.207 17.671 22.207 9.747 0 17.651-9.945 17.651-22.207v-484.771c0-12.282-7.904-22.227-17.651-22.227s-17.671 9.945-17.671 22.227v484.771zM582.613 183.209c-9.747 0-17.651 9.945-17.651 22.227v414.129c0 12.262 7.904 22.227 17.651 22.227s17.651-9.945 17.651-22.227v-414.148c0-12.262-7.904-22.207-17.651-22.207zM300.122 218.511c-9.747 0-17.651 9.945-17.651 22.227v484.771c0 12.262 7.904 22.227 17.651 22.227 9.766 0 17.671-9.945 17.671-22.227v-484.771c0-12.282-7.904-22.227-17.671-22.227z" />
<glyph unicode="&#xc10b;" glyph-name="zhuce" d="M889.894-64h-762.767c-70.218 0-127.128 56.952-127.128 127.211v763.268c0 70.26 57.745 133.228 127.963 133.228h511.854v-63.992h-511.854c-35.099 0-64.41-34.117-64.41-69.257v-763.268c0-35.119 28.455-63.595 63.553-63.595h762.767c35.099 0 69.842 29.228 69.842 64.368v511.854h63.992v-511.854c0-70.239-63.595-127.963-133.813-127.963zM509.973 244.24c-9.297-9.297-20.934-13.935-32.926-16.296l-278.302-137.657c-31.317-14.541-56.408 13.559-44.855 44.897l137.574 278.49c2.34 12.013 6.978 23.65 16.275 32.947l494.388 494.743c24.82 24.841 65.079 24.841 89.898 0l112.357-112.441c24.82-24.841 24.82-65.12 0-89.961l-494.409-494.722zM214.749 173.646c-7.27-14.666 6.769-29.708 22.438-22.459l171.858 104.105-90.253 90.316-104.042-171.962zM375.137 379.182l67.418-67.46c12.41-12.431-19.659 19.68 22.48-22.48l359.572 359.781-113.172 111.626-358.778-358.987c11.95-11.95 10.070-10.070 22.48-22.48zM936.964 806.444l-67.418 67.46c-12.41 12.41-32.529 12.41-44.939 0l-65.81-65.852 110.748-114.049 67.418 67.46c12.41 12.431 12.41 32.571 0 44.98z" />
<glyph unicode="&#xc10c;" glyph-name="open" d="M891.802 660.019c13.926 13.722 36.301 13.722 50.125 0s13.875-35.891 0-49.613l-404.89-400.896c-13.824-13.722-36.198-13.722-50.125 0l-404.89 400.896c-13.824 13.722-13.824 35.891 0 49.613 13.875 13.722 36.301 13.722 50.125 0l379.853-365.619 379.802 365.619z" />
<glyph unicode="&#xc10d;" glyph-name="chevron-thin-left" d="M711.219 80.998c13.722-13.926 13.722-36.301 0-50.125s-35.891-13.875-49.613 0l-400.896 404.89c-13.722 13.824-13.722 36.198 0 50.125l400.896 404.89c13.722 13.824 35.891 13.824 49.613 0 13.722-13.875 13.722-36.301 0-50.125l-365.619-379.853 365.619-379.802z" />
<glyph unicode="&#xc10e;" glyph-name="chevron-thin-right" d="M678.4 460.8l-365.619 379.904c-13.722 13.824-13.722 36.198 0 50.125 13.722 13.824 35.891 13.824 49.613 0l400.896-404.89c13.722-13.875 13.722-36.301 0-50.125l-400.896-404.89c-13.722-13.875-35.891-13.824-49.613 0-13.722 13.773-13.722 36.198 0 50.125l365.619 379.75z" />
<glyph unicode="&#xc10f;" glyph-name="arrow-up2" d="M132.198 261.581c-13.926-13.722-36.301-13.722-50.125 0s-13.875 35.891 0 49.613l404.89 400.896c13.824 13.722 36.198 13.722 50.125 0l404.89-400.896c13.824-13.722 13.824-35.891 0-49.613-13.875-13.722-36.301-13.722-50.074 0l-379.904 365.619-379.802-365.619z" />
<glyph unicode="&#xc110;" glyph-name="paper-plane" d="M954.368 837.939c-17.613-6.195-886.835-312.525-903.987-318.566-14.541-5.12-17.766-17.664-0.512-24.525 20.531-8.243 194.355-77.875 194.355-77.875v0l115.2-46.131c0 0 554.906 407.45 562.381 412.979 7.578 5.53 16.282-4.864 10.803-10.803-5.478-5.99-402.995-435.866-402.995-435.866v-0.102l-23.142-25.754 30.669-16.486c0 0 238.080-128.205 255.078-137.318 14.899-7.987 34.202-1.382 38.502 17.101 5.069 21.811 145.664 627.763 148.787 641.28 4.045 17.562-7.578 28.262-25.139 22.067zM358.4 94.106c0-12.595 7.117-16.128 16.947-7.219 12.851 11.725 145.92 131.123 145.92 131.123l-162.867 84.173v-208.077z" />
<glyph unicode="&#xc111;" glyph-name="aspect-ratio" d="M810.667 426.667h-85.333v-128h-128v-85.333h213.333v213.333zM298.667 554.667h128v85.333h-213.333v-213.333h85.333v128zM896 810.667h-768c-47.147 0-85.333-38.187-85.333-85.333v-597.333c0-47.147 38.187-85.333 85.333-85.333h768c47.147 0 85.333 38.187 85.333 85.333v597.333c0 47.147-38.187 85.333-85.333 85.333zM896 127.36h-768v598.613h768v-598.613z" />
<glyph unicode="&#xc112;" glyph-name="credit-card" d="M853.333 768h-682.667c-47.147 0-84.907-38.187-84.907-85.333l-0.427-512c0-47.147 38.187-85.333 85.333-85.333h682.667c47.147 0 85.333 38.187 85.333 85.333v512c0 47.147-38.187 85.333-85.333 85.333zM853.333 170.667h-682.667v256h682.667v-256zM853.333 597.334h-682.667v85.333h682.667v-85.333z" />
<glyph unicode="&#xc113;" glyph-name="exit-to-app" d="M430.293 273.707l60.373-60.373 213.333 213.333-213.333 213.333-60.373-60.373 110.293-110.293h-412.587v-85.333h412.587l-110.293-110.293zM810.667 810.667h-597.333c-47.147 0-85.333-38.187-85.333-85.333v-170.667h85.333v170.667h597.333v-597.333h-597.333v170.667h-85.333v-170.667c0-47.147 38.187-85.333 85.333-85.333h597.333c47.147 0 85.333 38.187 85.333 85.333v597.333c0 47.147-38.187 85.333-85.333 85.333z" />
<glyph unicode="&#xc114;" glyph-name="launch" d="M810.667 128h-597.333v597.333h298.667v85.333h-298.667c-47.147 0-85.333-38.187-85.333-85.333v-597.333c0-47.147 38.187-85.333 85.333-85.333h597.333c47.147 0 85.333 38.187 85.333 85.333v298.667h-85.333v-298.667zM597.333 810.667v-85.333h152.96l-419.413-419.413 60.373-60.373 419.413 419.413v-152.96h85.333v298.667h-298.667z" />
<glyph unicode="&#xc115;" glyph-name="list" d="M128 384h85.333v85.333h-85.333v-85.333zM128 213.334h85.333v85.333h-85.333v-85.333zM128 554.667h85.333v85.333h-85.333v-85.333zM298.667 384h597.333v85.333h-597.333v-85.333zM298.667 213.334h597.333v85.333h-597.333v-85.333zM298.667 640v-85.333h597.333v85.333h-597.333z" />
<glyph unicode="&#xc116;" glyph-name="lock-open" d="M512 213.334c47.147 0 85.333 38.187 85.333 85.333s-38.187 85.333-85.333 85.333-85.333-38.187-85.333-85.333 38.187-85.333 85.333-85.333zM768 597.334h-42.667v85.333c0 117.76-95.573 213.333-213.333 213.333s-213.333-95.573-213.333-213.333h81.067c0 72.96 59.307 132.267 132.267 132.267s132.267-59.307 132.267-132.267v-85.333h-388.267c-47.147 0-85.333-38.187-85.333-85.333v-426.667c0-47.147 38.187-85.333 85.333-85.333h512c47.147 0 85.333 38.187 85.333 85.333v426.667c0 47.147-38.187 85.333-85.333 85.333zM768 85.334h-512v426.667h512v-426.667z" />
<glyph unicode="&#xc117;" glyph-name="lock-outline" d="M768 597.334h-42.667v85.333c0 117.76-95.573 213.333-213.333 213.333s-213.333-95.573-213.333-213.333v-85.333h-42.667c-47.147 0-85.333-38.187-85.333-85.333v-426.667c0-47.147 38.187-85.333 85.333-85.333h512c47.147 0 85.333 38.187 85.333 85.333v426.667c0 47.147-38.187 85.333-85.333 85.333zM512 814.934c72.96 0 132.267-59.307 132.267-132.267v-85.333h-260.267v85.333h-4.267c0 72.96 59.307 132.267 132.267 132.267zM768 85.334h-512v426.667h512v-426.667zM512 213.334c47.147 0 85.333 38.187 85.333 85.333s-38.187 85.333-85.333 85.333-85.333-38.187-85.333-85.333 38.187-85.333 85.333-85.333z" />
<glyph unicode="&#xc118;" glyph-name="settings-phone" d="M554.667 554.667h-85.333v-85.333h85.333v85.333zM725.333 554.667h-85.333v-85.333h85.333v85.333zM853.333 277.334c-53.12 0-104.32 8.533-152.32 24.32-14.72 4.693-31.573 1.28-43.307-10.453l-93.867-94.080c-120.96 61.44-219.52 160.213-281.173 280.96l93.867 94.080c11.733 11.733 15.147 28.587 10.453 43.307-15.787 48-24.32 99.413-24.32 152.533 0 23.68-18.987 42.667-42.667 42.667h-149.333c-23.68 0-42.667-18.987-42.667-42.667 0-400.64 324.693-725.333 725.333-725.333 23.68 0 42.667 18.987 42.667 42.667v149.333c0 23.68-18.987 42.667-42.667 42.667zM810.667 554.667v-85.333h85.333v85.333h-85.333z" />
<glyph unicode="&#xc119;" glyph-name="error" d="M512 853.334c-235.52 0-426.667-190.933-426.667-426.667s191.147-426.667 426.667-426.667 426.667 190.933 426.667 426.667-191.147 426.667-426.667 426.667zM554.667 213.334h-85.333v85.333h85.333v-85.333zM554.667 384h-85.333v256h85.333v-256z" />
<glyph unicode="&#xc11a;" glyph-name="playlist-add" d="M597.333 512h-512v-85.333h512v85.333zM597.333 682.667h-512v-85.333h512v85.333zM768 341.334v170.667h-85.333v-170.667h-170.667v-85.333h170.667v-170.667h85.333v170.667h170.667v85.333h-170.667zM85.333 256h341.333v85.333h-341.333v-85.333z" />
<glyph unicode="&#xc11b;" glyph-name="replay" d="M512 725.334v170.667l-213.333-213.333 213.333-213.333v170.667c141.44 0 256-114.56 256-256s-114.56-256-256-256-256 114.56-256 256h-85.333c0-188.587 152.747-341.333 341.333-341.333s341.333 152.747 341.333 341.333-152.747 341.333-341.333 341.333z" />
<glyph unicode="&#xc11c;" glyph-name="phone-iphone" d="M661.333 896h-341.333c-58.88 0-106.667-47.787-106.667-106.667v-725.333c0-58.88 47.787-106.667 106.667-106.667h341.333c58.88 0 106.667 47.787 106.667 106.667v725.333c0 58.88-47.787 106.667-106.667 106.667zM490.667 0c-35.413 0-64 28.587-64 64s28.587 64 64 64 64-28.587 64-64-28.587-64-64-64zM682.667 170.667h-384v597.333h384v-597.333z" />
<glyph unicode="&#xc11d;" glyph-name="portrait" d="M512 416c52.907 0 96 42.88 96 96 0 52.907-43.093 96-96 96s-96-43.093-96-96c0-53.12 43.093-96 96-96zM704 245.334c0 64-128 96-192 96s-192-32-192-96v-32h384v32zM810.667 810.667h-597.333c-47.147 0-85.333-38.187-85.333-85.333v-597.333c0-47.147 38.187-85.333 85.333-85.333h597.333c47.147 0 85.333 38.187 85.333 85.333v597.333c0 47.147-38.187 85.333-85.333 85.333zM810.667 128h-597.333v597.333h597.333v-597.333z" />
<glyph unicode="&#xc11e;" glyph-name="check" d="M384 248.747l-177.92 177.92-60.373-60.373 238.293-238.293 512 512-60.373 60.373z" />
<glyph unicode="&#xc11f;" glyph-name="close" d="M810.667 664.96l-60.373 60.373-238.293-238.293-238.293 238.293-60.373-60.373 238.293-238.293-238.293-238.293 60.373-60.373 238.293 238.293 238.293-238.293 60.373 60.373-238.293 238.293z" />
<glyph unicode="&#xc120;" glyph-name="phone-in-talk" d="M853.333 277.334c-53.12 0-104.32 8.533-152.32 24.32-14.72 4.693-31.573 1.28-43.307-10.453l-93.867-94.080c-120.96 61.44-219.52 160.213-281.173 280.96l93.867 94.080c11.733 11.733 15.147 28.587 10.453 43.307-15.787 48-24.32 99.413-24.32 152.533 0 23.68-18.987 42.667-42.667 42.667h-149.333c-23.68 0-42.667-18.987-42.667-42.667 0-400.64 324.693-725.333 725.333-725.333 23.68 0 42.667 18.987 42.667 42.667v149.333c0 23.68-18.987 42.667-42.667 42.667zM810.667 426.667h85.333c0 212.053-171.947 384-384 384v-85.333c164.907 0 298.667-133.76 298.667-298.667zM640 426.667h85.333c0 117.76-95.573 213.333-213.333 213.333v-85.333c70.613 0 128-57.387 128-128z" />
<glyph unicode="&#xc121;" glyph-name="user-add" d="M384 341.334c58.923 0 112.256 23.893 150.869 62.507 38.571 38.571 62.464 91.904 62.464 150.827s-23.893 112.256-62.464 150.827c-38.613 38.613-91.947 62.507-150.869 62.507s-112.256-23.893-150.869-62.507c-38.571-38.571-62.464-91.904-62.464-150.827s23.893-112.256 62.464-150.827c38.613-38.613 91.947-62.507 150.869-62.507zM384 42.667c150.101 0 256 42.667 256 85.333 0 85.333-100.437 170.667-256 170.667-160 0-256-85.333-256-170.667 0-42.667 96-85.333 256-85.333zM896 426.667h-85.333v85.333c0 23.595-19.072 42.667-42.667 42.667s-42.667-19.072-42.667-42.667v-85.333h-85.333c-23.595 0-42.667-19.072-42.667-42.667s19.072-42.667 42.667-42.667h85.333v-85.333c0-23.595 19.072-42.667 42.667-42.667s42.667 19.072 42.667 42.667v85.333h85.333c23.595 0 42.667 19.072 42.667 42.667s-19.072 42.667-42.667 42.667z" />
<glyph unicode="&#xc122;" glyph-name="user-outline" d="M512 682.667c70.571 0 128-57.429 128-128s-57.429-128-128-128-128 57.429-128 128 57.429 128 128 128zM512 768c-117.931 0-213.333-95.488-213.333-213.333s95.403-213.333 213.333-213.333 213.333 95.488 213.333 213.333-95.403 213.333-213.333 213.333zM512 213.334c86.229 0 140.843-32.896 161.408-61.653-29.141-11.093-84.011-23.68-161.408-23.68-84.651 0-136.789 13.013-162.901 23.125 19.584 30.507 75.819 62.208 162.901 62.208zM512 298.667c-160 0-256-85.333-256-170.667 0-42.667 96-85.333 256-85.333 150.101 0 256 42.667 256 85.333s-100.437 170.667-256 170.667z" />
<glyph unicode="&#xc123;" glyph-name="user-add-outline" d="M896 341.334h-256c-23.595 0-42.667 19.115-42.667 42.667s19.072 42.667 42.667 42.667h256c23.595 0 42.667-19.115 42.667-42.667s-19.072-42.667-42.667-42.667zM768 213.334c-23.595 0-42.667 19.115-42.667 42.667v256c0 23.552 19.072 42.667 42.667 42.667s42.667-19.115 42.667-42.667v-256c0-23.552-19.072-42.667-42.667-42.667zM384 682.667c70.571 0 128-57.429 128-128s-57.429-128-128-128-128 57.429-128 128 57.429 128 128 128zM384 768c-117.931 0-213.333-95.488-213.333-213.333s95.403-213.333 213.333-213.333 213.333 95.488 213.333 213.333-95.403 213.333-213.333 213.333zM384 213.334c86.229 0 140.843-32.896 161.408-61.653-29.141-11.093-84.011-23.68-161.408-23.68-84.651 0-136.789 13.013-162.901 23.125 19.584 30.507 75.819 62.208 162.901 62.208zM384 298.667c-160 0-256-85.333-256-170.667 0-42.667 96-85.333 256-85.333 150.101 0 256 42.667 256 85.333s-100.437 170.667-256 170.667z" />
<glyph unicode="&#xc124;" glyph-name="autorenew" d="M988.928 460.8h-121.446v10.496c-5.53 227.021-190.669 409.395-418.253 409.395-231.168 0-418.509-188.006-418.509-419.891s187.341-419.789 418.509-419.789c97.178 0 186.624 33.28 257.69 88.986l-71.987 77.005c-52.019-38.298-116.224-61.082-185.702-61.082-173.363 0-313.907 141.005-313.907 314.88s140.544 314.88 313.907 314.88c169.83 0 308.122-135.322 313.6-304.384v-10.496h-136.806l178.893-199.373 184.013 199.373z" />
<glyph unicode="&#xc125;" glyph-name="log-out" d="M972.8 460.8l-307.2 256v-153.6h-358.4v-204.8h358.4v-153.6l307.2 256zM153.6 819.2h409.6v102.4h-409.6c-56.32 0-102.4-46.080-102.4-102.4v-716.8c0-56.32 46.080-102.4 102.4-102.4h409.6v102.4h-409.6v716.8z" />
<glyph unicode="&#xc126;" glyph-name="login" d="M716.8 460.8l-307.2 256v-153.6h-358.4v-204.8h358.4v-153.6l307.2 256zM870.4 102.4h-409.6v-102.4h409.6c56.32 0 102.4 46.080 102.4 102.4v716.8c0 56.32-46.080 102.4-102.4 102.4h-409.6v-102.4h409.6v-716.8z" />
<glyph unicode="&#xc127;" glyph-name="new-message" d="M930.509 879.309c-56.422 56.422-106.598 39.782-106.598 39.782l-442.317-441.958-74.394-221.133 221.030 74.445 442.061 442.266c0 0 16.589 50.176-39.782 106.598zM542.976 378.624l-24.115-24.064-75.418-25.6c-5.325 12.288-11.981 24.422-25.498 37.888-13.517 13.517-25.6 20.173-37.888 25.498l25.6 75.418 24.115 24.064c0 0 39.731 4.557 78.694-34.458 39.014-38.963 34.509-78.746 34.509-78.746zM819.2 102.4h-665.6v665.6h256l102.4 102.4h-358.4c-56.32 0-102.4-46.080-102.4-102.4v-665.6c0-56.32 46.080-102.4 102.4-102.4h665.6c56.32 0 102.4 46.080 102.4 102.4v358.4l-102.4-102.4v-256z" />
<glyph unicode="&#xc128;" glyph-name="paperplane" d="M1009.376 954.88c-5.312 3.424-11.36 5.12-17.376 5.12-6.176 0-12.384-1.76-17.76-5.376l-960-640c-9.888-6.56-15.328-18.112-14.048-29.952 1.216-11.808 8.896-22.016 19.936-26.368l250.368-100.192 117.728-206.016c5.632-9.888 16.096-16 27.424-16.128 0.128 0 0.224 0 0.352 0 11.232 0 21.664 5.952 27.424 15.552l66.464 110.816 310.24-124.064c3.808-1.536 7.808-2.272 11.872-2.272 5.44 0 10.816 1.376 15.68 4.128 8.448 4.736 14.24 13.056 15.872 22.624l160 960c2.080 12.576-3.488 25.184-14.176 32.128zM100.352 295.136l741.6 494.432-539.2-577.184c-2.848 1.696-5.376 3.936-8.512 5.184l-193.888 77.568zM326.048 189.888c-0.064 0.128-0.16 0.192-0.224 0.32l606.176 648.8-516.768-805.184-89.184 156.064zM806.944 12.512l-273.312 109.312c-6.496 2.56-13.248 3.424-19.936 3.808l420.864 652.416-127.616-765.536z" />
<glyph unicode="&#xc129;" glyph-name="file-text2" d="M917.806 730.924c-22.212 30.292-53.174 65.7-87.178 99.704s-69.412 64.964-99.704 87.178c-51.574 37.82-76.592 42.194-90.924 42.194h-496c-44.112 0-80-35.888-80-80v-864c0-44.112 35.888-80 80-80h736c44.112 0 80 35.888 80 80v624c0 14.332-4.372 39.35-42.194 90.924zM785.374 785.374c30.7-30.7 54.8-58.398 72.58-81.374h-153.954v153.946c22.984-17.78 50.678-41.878 81.374-72.572zM896 16c0-8.672-7.328-16-16-16h-736c-8.672 0-16 7.328-16 16v864c0 8.672 7.328 16 16 16 0 0 495.956 0.002 496 0v-224c0-17.672 14.326-32 32-32h224v-624zM736 128h-448c-17.672 0-32 14.326-32 32s14.328 32 32 32h448c17.674 0 32-14.326 32-32s-14.326-32-32-32zM736 256h-448c-17.672 0-32 14.326-32 32s14.328 32 32 32h448c17.674 0 32-14.326 32-32s-14.326-32-32-32zM736 384h-448c-17.672 0-32 14.326-32 32s14.328 32 32 32h448c17.674 0 32-14.326 32-32s-14.326-32-32-32z" />
<glyph unicode="&#xc12a;" glyph-name="coin-yen" d="M480 896c-265.096 0-480-214.904-480-480s214.904-480 480-480c265.098 0 480 214.902 480 480s-214.902 480-480 480zM480 32c-212.078 0-384 171.922-384 384s171.922 384 384 384c212.076 0 384-171.922 384-384s-171.924-384-384-384zM608 384c17.674 0 32 14.326 32 32s-14.326 32-32 32h-68.208l94.832 142.25c9.804 14.704 5.83 34.572-8.876 44.376-14.704 9.802-34.572 5.83-44.376-8.876l-101.372-152.062-101.374 152.062c-9.804 14.706-29.672 18.68-44.376 8.876-14.706-9.804-18.678-29.672-8.876-44.376l94.834-142.25h-68.208c-17.672 0-32-14.326-32-32s14.328-32 32-32h96v-64h-96c-17.672 0-32-14.326-32-32s14.328-32 32-32h96v-96c0-17.674 14.328-32 32-32s32 14.326 32 32v96h96c17.674 0 32 14.326 32 32s-14.326 32-32 32h-96v64h96z" />
<glyph unicode="&#xe600;" glyph-name="download" d="M768 614.4h-153.6v307.2h-204.8v-307.2h-153.6l256-256 256 256zM990.106 279.962c-10.752 11.469-82.483 88.218-102.963 108.237-13.568 13.261-32.973 21.402-53.35 21.402h-89.958l156.877-153.293h-181.453c-5.222 0-9.933-2.662-12.288-6.81l-41.779-95.898h-306.381l-41.779 95.898c-2.355 4.147-7.117 6.81-12.288 6.81h-181.453l156.826 153.293h-89.907c-20.326 0-39.731-8.141-53.35-21.402-20.48-20.070-92.211-96.819-102.963-108.237-25.037-26.675-38.81-47.923-32.256-74.189l28.723-157.389c6.554-26.317 35.379-47.923 64.102-47.923h835.174c28.723 0 57.549 21.606 64.102 47.923l28.723 157.389c6.451 26.266-7.27 47.514-32.358 74.189z" />
<glyph unicode="&#xe601;" glyph-name="align-justify" d="M128 853.334v-896h725.333v896h-725.333zM768 42.667h-554.667v725.333h554.667v-725.333zM682.667 640h-384v-85.333h384v85.333zM682.667 512h-384v-42.667h384v42.667zM682.667 426.667h-384v-42.667h384v42.667zM682.667 341.334h-384v-42.667h384v42.667zM682.667 256h-384v-42.667h384v42.667z" />
<glyph unicode="&#xe602;" glyph-name="graph" d="M981.248-0.085h-85.248v42.752h-42.752v-42.752h-85.12v42.752h-42.752v-42.752h-85.248v42.752h-42.752v-42.752h-85.248v42.752h-42.752v-42.752h-85.248v42.752h-42.752v-42.752h-187.776l224.853 135.125 111.275 325.205 165.291-290.517 320.299 533.675-73.131 43.947-245.205-408.576-186.709 328.149-162.517-474.795-222.507-133.717v880.256h-85.248v-1024h1024v128h-42.752zM981.248 938.667h42.752v-42.752h-42.752zM853.248 938.667h42.752v-42.752h-42.752zM725.376 938.667h42.752v-42.752h-42.752zM597.376 938.667h42.752v-42.752h-42.752zM469.376 938.667h42.752v-42.752h-42.752zM341.376 938.667h42.752v-42.752h-42.752zM213.376 938.667h42.752v-42.752h-42.752zM85.376 938.667h42.752v-42.752h-42.752zM981.248 810.667h42.752v-42.752h-42.752zM853.248 810.667h42.752v-42.752h-42.752zM725.376 810.667h42.752v-42.752h-42.752zM597.376 810.667h42.752v-42.752h-42.752zM469.376 810.667h42.752v-42.752h-42.752zM341.376 810.667h42.752v-42.752h-42.752zM213.376 810.667h42.752v-42.752h-42.752zM85.376 810.667h42.752v-42.752h-42.752zM981.248 682.795h42.752v-42.752h-42.752zM725.376 682.795h42.752v-42.752h-42.752zM597.376 682.795h42.752v-42.752h-42.752zM341.376 682.795h42.752v-42.752h-42.752zM213.376 682.795h42.752v-42.752h-42.752zM85.376 682.795h42.752v-42.752h-42.752zM981.248 554.795h42.752v-42.752h-42.752zM597.376 554.795h42.752v-42.752h-42.752zM341.376 554.795h42.752v-42.752h-42.752zM213.376 554.795h42.752v-42.752h-42.752zM85.376 554.795h42.752v-42.752h-42.752zM981.248 426.71h42.752v-42.752h-42.752zM853.248 426.71h42.752v-42.752h-42.752zM213.376 426.71h42.752v-42.752h-42.752zM85.376 426.71h42.752v-42.752h-42.752zM981.248 298.71h42.752v-42.752h-42.752zM853.248 298.71h42.752v-42.752h-42.752zM469.376 298.71h42.752v-42.752h-42.752zM213.376 298.71h42.752v-42.752h-42.752zM85.376 298.71h42.752v-42.752h-42.752zM981.248 170.838h42.752v-42.752h-42.752zM853.248 170.838h42.752v-42.752h-42.752zM725.376 170.838h42.752v-42.752h-42.752zM469.376 170.838h42.752v-42.752h-42.752zM85.376 170.838h42.752v-42.752h-42.752z" />
<glyph unicode="&#xe603;" glyph-name="flip-to-back" d="M384 640h-85.333v-85.333h85.333v85.333zM384 469.334h-85.333v-85.333h85.333v85.333zM384 810.667c-47.147 0-85.333-38.187-85.333-85.333h85.333v85.333zM554.667 298.667h-85.333v-85.333h85.333v85.333zM810.667 810.667v-85.333h85.333c0 47.147-38.187 85.333-85.333 85.333zM554.667 810.667h-85.333v-85.333h85.333v85.333zM384 213.334v85.333h-85.333c0-47.147 38.187-85.333 85.333-85.333zM810.667 384h85.333v85.333h-85.333v-85.333zM810.667 554.667h85.333v85.333h-85.333v-85.333zM810.667 213.334c47.147 0 85.333 38.187 85.333 85.333h-85.333v-85.333zM213.333 640h-85.333v-512c0-47.147 38.187-85.333 85.333-85.333h512v85.333h-512v512zM640 725.334h85.333v85.333h-85.333v-85.333zM640 213.334h85.333v85.333h-85.333v-85.333z" />
<glyph unicode="&#xe604;" glyph-name="store" d="M796.948 341.333h-1.111c-31.111 0-56.334-25.223-56.334-56.334v-142.777c0-15.694-12.722-28.444-28.444-28.444h-398.137c-15.694 0-28.416 12.75-28.416 28.444v142.777c0 31.111-25.223 56.334-56.334 56.334h-1.14c-31.083 0-56.306-25.223-56.306-56.334v-228.667c0-31.111 25.223-56.334 56.306-56.334h569.916c31.111 0 56.334 25.223 56.334 56.334v228.667c0 31.111-25.223 56.334-56.334 56.334zM913.81 767.89l-89.083 89.111c-35.362 35.362-81.611 52.75-127.945 52.75-4.722 0-9.444-0.194-14.167-0.555v1.026h-341.25v-1.028c-4.722 0.361-9.444 0.555-14.167 0.555-46.306 0-92.555-17.388-127.916-52.75l-89.111-89.111c-70.944-70.944-70.944-186 0-256.972l2.612-2.583c35.472-35.472 81.943-53.221 128.443-53.221s92.999 17.749 128.444 53.223l9.417 9.388c30.972-38.167 78.222-62.612 131.195-62.612h3.417c52.999 0 100.251 24.444 131.195 62.612l9.417-9.388c35.472-35.474 81.972-53.223 128.471-53.223 46.473 0 92.972 17.749 128.444 53.223l2.583 2.583c70.972 70.971 70.972 186.027 0.002 256.972zM833.392 591.388l-2.612-2.612c-12.834-12.834-29.888-19.89-48-19.89-18.167 0-35.221 7.056-48.055 19.89l-9.388 9.417-80.389 80.416c-4.722 4.722-12.5 4.334-16.722-0.86l-71.666-88.334c-10.556-13.054-26.196-20.526-42.862-20.526h-3.417c-16.667 0-32.277 7.472-42.834 20.528l-70.332 86.667c-4.917 6.084-14.028 6.556-19.556 1.028l-88.306-88.334c-12.834-12.832-29.861-19.888-48.028-19.888-18.139 0-35.195 7.056-48 19.89l-2.612 2.612c-26.5 26.528-26.5 69.527 0 96.055l89.111 89.111c16.889 16.889 36.999 19.417 47.472 19.417 1.833 0 12.361 0.612 14.167 0.473h341.25c1.833 0.139 12.361-0.473 14.167-0.473 10.5 0 30.612-2.528 47.5-19.417l89.111-89.111c26.5-26.528 26.5-69.529 0-96.057z" />
<glyph unicode="&#xe605;" glyph-name="caidan" d="M31.616 760.64c0 33.508 27.164 60.672 60.672 60.672s60.672-27.164 60.672-60.672c0-33.508-27.164-60.672-60.672-60.672s-60.672 27.164-60.672 60.672zM23.936 459.968c0 33.544 27.192 60.736 60.736 60.736s60.736-27.192 60.736-60.736c0-33.544-27.192-60.736-60.736-60.736s-60.736 27.192-60.736 60.736zM23.936 157.76c0 33.544 27.192 60.736 60.736 60.736s60.736-27.192 60.736-60.736c0-33.544-27.192-60.736-60.736-60.736s-60.736 27.192-60.736 60.736zM995.392 763.456c0-32-23.744-57.856-53.12-57.856h-629.76c-29.376 0-53.184 25.92-53.184 57.856v0c0 31.936 23.744 57.856 53.184 57.856h629.696c29.44 0 53.184-25.92 53.184-57.856v0zM995.392 462.72c0-31.936-23.744-57.856-53.12-57.856h-629.76c-29.376 0-53.184 25.92-53.184 57.856v0c0 32 23.744 57.856 53.184 57.856h629.696c29.44 0.064 53.184-25.856 53.184-57.856v0zM995.392 160.704c0-32-23.744-57.92-53.12-57.92h-629.76c-29.376 0-53.184 25.92-53.184 57.92v0c0 31.872 23.744 57.792 53.184 57.792h629.696c29.44 0 53.184-25.92 53.184-57.792v0z" />
<glyph unicode="&#xe606;" glyph-name="picture-in-picture" d="M810.667 640h-341.333v-256h341.333v256zM896 810.667h-768c-47.147 0-85.333-38.187-85.333-85.333v-597.333c0-47.147 38.187-84.48 85.333-84.48h768c47.147 0 85.333 37.547 85.333 84.48v597.333c0 47.147-38.187 85.333-85.333 85.333zM896 127.36h-768v598.613h768v-598.613z" />
<glyph unicode="&#xe607;" glyph-name="gonglve" d="M693.26 527.884c0 129.668 0 259.345 0 389.013 66.498 0 132.997 0 199.495 0 57.561-6.192 84.99-32.555 85.030-101.36 0.073-130.213 0.070-321.057-0.064-451.261-0.008-7.922 0.064-16.902 0.064-27.306-16.458 0-35.046-0.504-49.966-0.464-218.867 0.642-437.729 1.713-656.592 1.347-24.13-0.032-51.294-2.605-71.799-13.702-61.574-33.33-90.599-130.172-67.504-210.575 22.684-78.958 66.689-111.088 152.316-111.095 218.863-0.024 437.729 0.26 656.592-0.852 19.835-0.83 34.045 2.938 34.478-18.239 0.078-15.918-19.976-14.010-29.978-14.035-253.491-0.561-506.984-0.324-760.471 0.211-41.379 0.089-72.956 20.943-88.943 57.544-12.472 28.557-19.163 38.004-23.114 91.476-2.26 222.977-2.837 445.99-1.401 668.983 0.41 63.073 4.498 89.878 65.897 115.972 8.564 3.64 28.141 8.698 57.224 13.355 110.832 0 221.659 0 332.491 0 0-130.35 0-260.701 0-391.050 8.35 8.451 4.96 4.858 15.684 16.809 40.25 45.537 42.222 45.152 67.316 79.667zM971.595 267.923c-51.119-66.823-43.449-129.481 1.425-195.371-15.841-0.877-27.417-2.078-38.996-2.087-216.010-0.106-432.019-0.146-648.029-0.032-63.027 0.032-97.645 35.879-98.603 101.412-0.884 60.588 35.234 95.997 98.68 96.037 216.013 0.114 432.022 0.041 648.032 0.041 10.597-0.001 21.198-0.001 37.49-0.001zM977.719 364.276c0.031-2.575 0 0 0.064-27.306-16.458 0-35.046-0.504-49.966-0.464zM71.402 787.57c0.41 63.073 26.55 102.353 87.386 120.066 8.933 2.605 27.009 5.958 35.735 9.262z" />
<glyph unicode="&#xe608;" glyph-name="rili" horiz-adv-x="1000" d="M457.838 240.446h110.305v110.3h-110.305v-110.3zM292.382 405.896h110.305v110.3h-110.305v-110.3zM292.382 240.446h110.305v110.3h-110.305v-110.3zM843.905 902.247h-110.305v-55.151c0-30.484-24.697-55.151-55.153-55.151s-55.153 24.666-55.153 55.151v55.151h-220.609v-55.151c0-30.484-24.667-55.151-55.153-55.151-30.459 0-55.153 24.666-55.153 55.151v55.151h-110.303c-60.916 0-110.305-49.386-110.305-110.3v-661.801c0-60.914 49.388-110.3 110.305-110.3h661.828c60.916 0 110.305 49.386 110.305 110.3v661.801c0 60.914-49.389 110.3-110.305 110.3zM843.905 185.295c0-30.485-24.697-55.151-55.153-55.151h-551.524c-30.459 0-55.153 24.665-55.153 55.151v386.051c0 30.484 24.694 55.151 55.153 55.151h551.524c30.456 0 55.153-24.666 55.153-55.151v-386.051zM623.296 405.896h110.305v110.3h-110.305v-110.3zM457.838 405.896h110.305v110.3h-110.305v-110.3zM623.296 240.446h110.305v110.3h-110.305v-110.3z" />
<glyph unicode="&#xe609;" glyph-name="tuandui" d="M417.122 446.83c31.657 13.234 65.947 20.753 101.914 20.753 35.965 0 70.257-7.518 101.914-20.753 40.597 33.005 66.94 85.055 66.94 143.822 0 99.771-75.6 180.653-168.854 180.653-93.252 0-168.85-80.882-168.85-180.653 0-58.765 26.344-110.817 66.935-143.822zM733.929 349.278c20.578 8.608 42.871 13.485 66.249 13.485 23.38 0 45.671-4.876 66.251-13.485 26.397 21.443 43.515 55.283 43.515 93.498 0 64.862-49.142 117.442-109.766 117.442-60.62 0-109.766-52.581-109.766-117.442 0-38.215 17.118-72.055 43.517-93.498zM970.4 190.866c0 99.261-76.215 170.217-170.223 170.217-25.23 0-49.093-11.992-70.631-22.531-47.688 69.072-124.095 111.085-210.51 111.085-88.086 0-165.837-48.189-213.298-119.546-24.245 14.214-52.059 32.618-81.654 32.618-94.006 0-170.223-72.581-170.223-171.842h203.439c-0.006 0-0.107 0-0.107 0h713.207zM157.836 351.040c20.578 8.608 42.871 13.484 66.249 13.484s45.671-4.876 66.251-13.484c26.397 21.443 43.515 55.283 43.515 93.501 0 64.86-49.142 117.44-109.766 117.44-60.62 0-109.766-52.581-109.766-117.44 0-38.217 17.118-72.057 43.517-93.501z" />
<glyph unicode="&#xe60a;" glyph-name="wechat" horiz-adv-x="1170" d="M331.429 687.428q0 23.429-14.286 37.714t-37.714 14.286q-24.571 0-43.429-14.571t-18.857-37.429q0-22.286 18.857-36.857t43.429-14.571q23.429 0 37.714 14t14.286 37.429zM756 397.714q0 16-14.571 28.571t-37.429 12.571q-15.429 0-28.286-12.857t-12.857-28.286q0-16 12.857-28.857t28.286-12.857q22.857 0 37.429 12.571t14.571 29.143zM621.143 687.428q0 23.429-14 37.714t-37.429 14.286q-24.571 0-43.429-14.571t-18.857-37.429q0-22.286 18.857-36.857t43.429-14.571q23.429 0 37.429 14t14 37.429zM984 397.714q0 16-14.857 28.571t-37.143 12.571q-15.429 0-28.286-12.857t-12.857-28.286q0-16 12.857-28.857t28.286-12.857q22.286 0 37.143 12.571t14.857 29.143zM832 624.571q-17.714 2.286-40 2.286-96.571 0-177.714-44t-127.714-119.143-46.571-164.286q0-44.571 13.143-86.857-20-1.714-38.857-1.714-14.857 0-28.571 0.857t-31.429 3.714-25.429 4-31.143 6-28.571 6l-144.571-72.571 41.143 124.571q-165.714 116-165.714 280 0 96.571 55.714 177.714t150.857 127.714 207.714 46.571q100.571 0 190-37.714t149.714-104.286 78-148.857zM1170.286 304q0-66.857-39.143-127.714t-106-110.571l31.429-103.429-113.714 62.286q-85.714-21.143-124.571-21.143-96.571 0-177.714 40.286t-127.714 109.429-46.571 150.857 46.571 150.857 127.714 109.429 177.714 40.286q92 0 173.143-40.286t130-109.714 48.857-150.571z" />
<glyph unicode="&#xe60b;" glyph-name="shield" d="M923.072 512h-379.072v411.008c33.6-24.544 84.096-58.496 149.984-94.144 138.72-75.040 228.512-15.136 228.512-15.136s13.536-144.864 0.576-301.728zM448 512h-378.976c-12.992 156.864 0.576 301.728 0.576 301.728s90.016-59.904 229.12 15.136c65.28 35.2 115.584 68.864 149.28 93.344v-410.208zM448-46.72c-73.44 30.080-214.336 105.664-308.192 272.768-29.312 52.256-47.648 119.648-59.136 189.952h367.328v-462.72zM544 416h367.456c-11.456-70.304-29.728-137.696-58.976-189.952-94.080-167.968-235.52-243.456-308.448-273.216v463.168z" />
<glyph unicode="&#xe60c;" glyph-name="mygift" d="M357.868 684.269c-15.269 7.264-33.577 6.224-40.842-9.076-7.268-15.304-0.767-32.228 14.533-39.496 15.299-7.264 88.983-33.911 96.249-18.611 7.268 15.299-54.639 59.915-69.94 67.182zM686.256 635.698c15.3 7.269 21.803 24.193 14.504 39.496-7.237 15.299-25.543 16.34-40.842 9.076-15.27-7.268-77.177-51.883-69.94-67.182 7.299-15.3 80.978 11.346 96.278 18.611zM659.203 900.815h-294.406c-168.785 0-305.612-136.827-305.612-305.612v-294.406c0-168.785 136.827-305.612 305.612-305.612h294.406c168.785 0 305.612 136.827 305.612 305.612v294.407c0 168.785-136.827 305.611-305.612 305.611zM462.915 146.24h-214.635v306.621h214.635v-306.621zM462.915 483.523h-245.297v91.987h245.297v-91.987zM483.182 590.811c-14.532-30.6-134.236-4.231-164.776 10.395-36.029 17.261-49.061 60.649-34.526 91.249 14.533 30.6 56.57 46.331 87.17 31.797 30.601-14.536 126.697-102.903 112.132-133.441zM534.632 590.78c-14.532 30.6 81.562 118.937 112.162 133.472 30.603 14.535 72.638-1.196 87.173-31.797 14.532-30.6 1.502-74.019-34.526-91.28-30.569-14.626-150.274-40.995-164.809-10.395zM769.533 146.24h-214.632v306.621h214.632v-306.621zM800.198 483.523h-245.297v91.987h245.297v-91.987z" />
<glyph unicode="&#xe60d;" glyph-name="shop" d="M659.203 900.815h-294.406c-168.785 0-305.612-136.827-305.612-305.612v-294.406c0-168.785 136.827-305.612 305.612-305.612h294.406c168.785 0 305.612 136.827 305.612 305.612v294.407c0 168.785-136.827 305.611-305.612 305.611zM299.049 733.193h425.559c16.026 0 29.017-10.949 29.017-24.456s-12.991-24.443-29.017-24.443h-425.559c-16.021 0-29.016 10.936-29.016 24.443s12.995 24.456 29.016 24.456zM753.625 195.325c0-26.697-19.247-48.89-48.363-48.89h-386.873c-22.317 0-48.355 19.147-48.355 48.89v195.592c3.353-12.668 6.887-24.455 24.176-24.455 14.274 0 22.505 16.197 24.18 24.455v-146.688h386.873v146.684c5.76-12.687 17.241-23.78 24.188-24.451 14.026-1.311 17.948 11.344 24.176 24.451v-195.588zM747.581 409.456c-43.407 0-78.583 36.232-78.583 80.937 0-44.705-35.188-80.937-78.587-80.937-43.403 0-78.583 36.232-78.583 80.937 0-44.705-35.188-80.937-78.587-80.937-43.403 0-78.583 36.232-78.583 80.937 0-44.705-35.176-80.937-78.583-80.937-43.403 0-78.583 36.232-78.583 80.937l48.355 145.010h531.955l48.359-145.010c0-44.705-35.18-80.937-78.583-80.937z" />
<glyph unicode="&#xe60e;" glyph-name="duigou" d="M498.338 166.804l-303.4 313.398 61.063-18.728 215.579-80.842c71.896 86.824 183.997 240.236 404.211 377.263l53.895 26.947c-202.132-188.551-378.907-482.358-431.347-618.038v0 0zM881.448 509.009c3.234-19.86 4.985-40.232 4.985-61.009 0-206.794-167.64-374.434-374.434-374.434-206.767 0-374.407 167.64-374.407 374.434 0 206.767 167.64 374.407 374.407 374.407 49.96 0 97.549-9.782 141.096-27.54v74.914c-45.299 15.171-92.618 22.851-141.096 22.851-59.985 0-118.218-11.776-173.083-34.951-52.952-22.42-100.487-54.488-141.312-95.259-40.798-40.825-72.866-88.333-95.259-141.339-23.202-54.865-34.978-113.071-34.978-173.083s11.776-118.245 34.978-173.11c22.42-52.952 54.461-100.487 95.259-141.312 40.825-40.798 88.36-72.839 141.312-95.259 54.865-23.175 113.098-34.951 173.083-34.951 60.012 0 118.272 11.776 173.11 34.951 52.952 22.42 100.487 54.461 141.285 95.259 40.825 40.825 72.866 88.36 95.259 141.312 23.229 54.865 34.978 113.098 34.978 173.11 0 20.561-1.374 40.906-4.123 61.009h-71.060z" />
<glyph unicode="&#xe615;" glyph-name="mode-edit" d="M128 202.667v-160h160l472.107 472.107-160 160-472.107-472.107zM883.413 638.080c16.64 16.64 16.64 43.733 0 60.373l-99.627 99.627c-16.64 16.64-43.733 16.64-60.373 0l-78.080-78.080 160-160 78.080 78.080z" />
<glyph unicode="&#xe61d;" glyph-name="user" d="M725.333 554.667c0 58.923-23.893 112.256-62.464 150.827-38.613 38.613-91.947 62.507-150.869 62.507s-112.256-23.893-150.869-62.507c-38.571-38.571-62.464-91.904-62.464-150.827s23.893-112.256 62.464-150.827c38.613-38.613 91.947-62.507 150.869-62.507s112.256 23.893 150.869 62.507c38.571 38.571 62.464 91.904 62.464 150.827zM256 128c0-42.667 96-85.333 256-85.333 150.101 0 256 42.667 256 85.333 0 85.333-100.437 170.667-256 170.667-160 0-256-85.333-256-170.667z" />
<glyph unicode="&#xe627;" glyph-name="price-ribbon" d="M656.64 427.366c6.042 13.21 22.784 25.446 37.222 27.085s27.597 14.848 29.235 29.286c1.741 14.336 13.926 31.13 27.085 37.222 13.21 6.093 21.658 22.682 18.893 36.864-2.97 14.234 3.482 33.946 14.131 43.725 10.701 9.933 13.619 28.314 6.502 41.011-7.117 12.595-7.117 33.331 0 45.926 7.117 12.749 4.198 31.13-6.502 41.011-10.65 9.882-17.050 29.542-14.131 43.725 2.765 14.234-5.683 30.874-18.893 36.966-13.107 6.093-25.344 22.784-27.085 37.222-1.69 14.336-14.848 27.546-29.235 29.286-14.438 1.69-31.181 13.926-37.222 27.034-6.144 13.21-22.733 21.658-36.966 18.739-14.234-2.816-33.894 3.584-43.725 14.234-9.882 10.752-28.314 13.619-40.96 6.502s-33.382-7.117-45.978 0c-12.646 7.219-31.027 4.352-41.011-6.4-9.779-10.65-29.44-17.050-43.725-14.234-14.182 2.867-30.822-5.581-36.864-18.79-6.093-13.107-22.835-25.344-37.274-26.982-14.438-1.792-27.597-14.95-29.286-29.338-1.741-14.387-13.875-31.13-27.085-37.171-13.107-6.093-21.606-22.733-18.739-36.966 2.816-14.182-3.584-33.894-14.234-43.725s-13.619-28.262-6.502-41.011c7.117-12.595 7.117-33.331 0-45.926-7.117-12.698-4.198-31.078 6.502-41.062 10.701-9.728 17.050-29.44 14.234-43.725-2.867-14.182 5.632-30.822 18.739-36.864 13.21-6.093 25.344-22.886 27.034-37.222 1.741-14.438 14.848-27.648 29.286-29.286s31.181-13.926 37.274-27.085c6.042-13.107 22.682-21.555 36.864-18.739 14.234 2.816 33.946-3.533 43.725-14.234 9.933-10.65 28.314-13.619 41.011-6.502 12.595 7.117 33.331 7.117 45.978 0s31.078-4.147 40.96 6.502c9.882 10.752 29.491 17.050 43.725 14.234 14.285-2.867 30.925 5.581 37.018 18.688zM512 491.571c-96.154 0-174.080 77.978-174.080 174.029 0 96.154 77.926 174.131 174.080 174.131s174.080-77.978 174.080-174.131c0-96.051-77.978-174.029-174.080-174.029zM305.92 388.659l-63.642-360.909 160.154 23.757 142.387-77.107 63.386 359.475c-30.566-8.858-62.822-13.875-96.256-13.875-77.261 0-148.429 25.702-206.029 68.659zM714.803 386.202c-15.923-11.571-32.87-21.811-50.688-30.566l-38.298-216.883 172.493 93.594-83.507 153.856z" />
<glyph unicode="&#xe62b;" glyph-name="banknote" d="M1005.28 621.248l-320 320c-15.872 15.872-38.88 22.24-60.672 16.864-11.488-2.816-21.76-8.736-29.888-16.864-7.264-7.264-12.736-16.256-15.872-26.304-14.496-47.008-39.552-87.872-76.64-124.928-49.536-49.504-114.048-87.008-182.304-126.656-72.448-41.984-147.296-85.504-208.64-146.816-52.128-52.192-87.616-110.24-108.416-177.632-7.008-22.752-0.896-47.36 15.872-64.192l320-320c15.872-15.872 38.88-22.24 60.672-16.864 11.488 2.88 21.76 8.736 29.888 16.864 7.264 7.264 12.736 16.256 15.872 26.368 14.528 47.008 39.584 87.872 76.704 124.928 49.504 49.504 113.984 86.944 182.304 126.56 72.384 42.048 147.264 85.568 208.576 146.88 52.128 52.128 87.616 110.24 108.448 177.632 6.976 22.72 0.832 47.424-15.904 64.16zM384 0c-105.984 105.984-214.016 214.048-320 320 90.944 294.432 485.12 281.568 576 576 105.984-105.952 214.048-214.016 320.064-320-90.976-294.368-485.152-281.568-576.064-576zM625.984 483.2c-10.432 8.736-20.928 14.688-31.488 17.632-10.496 2.944-20.992 4.128-31.616 3.36-10.496-0.8-21.248-3.2-32-7.328-10.752-4.192-21.568-8.736-32.448-14.016-17.184 19.744-34.368 39.264-51.552 57.376 7.744 7.008 15.264 10.56 22.496 10.816 7.264 0.32 14.24-0.448 20.864-2.112 6.752-1.696 12.928-3.136 18.624-4.256 5.76-1.12 10.752 0.128 15.136 3.808 4.64 4 7.2 9.184 7.552 15.424 0.32 6.304-2.048 12.448-7.328 18.432-6.752 7.744-14.88 12.448-24.64 14.176-9.632 1.696-19.488 1.568-29.76-0.672-10.112-2.304-19.744-6.112-28.864-11.488s-16.448-10.88-21.888-16.256c-2.080 1.984-4.16 3.936-6.24 5.888-2.304 2.112-5.184 3.264-8.64 3.2-3.488 0-6.368-1.504-8.736-4.256-2.304-2.688-3.36-5.824-2.944-9.12 0.32-3.424 1.696-6.048 4.064-8.064 2.080-1.76 4.16-3.488 6.24-5.312-8.192-9.888-14.944-20.8-20.256-32.32-5.376-11.552-8.576-23.008-9.76-34.112-1.248-11.2-0.064-21.44 3.36-30.944 3.424-9.568 9.76-17.696 19.008-25.376 15.072-12.512 32.8-17.824 53.376-16.64 20.512 1.248 42.624 7.36 66.4 20.128 18.88-21.824 37.824-43.488 56.736-63.616-8-6.752-15.008-10.624-21.184-11.872-6.176-1.312-11.68-1.184-16.672 0.32-4.992 1.568-9.632 3.808-13.888 6.688-4.256 2.944-8.448 5.44-12.64 7.488-4.128 2.048-8.384 3.2-12.736 3.264s-8.992-2.048-14.112-6.432c-5.248-4.576-7.872-9.888-7.872-15.872 0-5.952 2.752-12 8.128-18.112 5.44-6.112 12.512-11.264 21.056-15.328s18.208-6.624 28.832-7.328c10.624-0.736 21.824 0.864 33.632 5.248 11.872 4.32 23.616 12.128 35.2 23.744 5.568-5.44 11.2-10.624 16.8-15.616 2.368-2.048 5.248-3.072 8.736-2.816 3.36 0.128 6.304 1.696 8.64 4.512 2.368 2.88 3.36 6.048 3.008 9.376-0.32 3.36-1.696 5.952-4 7.808-5.632 4.512-11.264 9.248-16.864 14.24 9.568 11.744 17.248 24.128 22.944 36.384 5.696 12.32 9.056 24.192 10.176 35.2 1.12 11.072-0.192 21.056-3.808 30.112-3.584 9.184-9.952 17.056-19.072 24.64zM447.072 461.504c-9.056-0.384-16.96 2.624-23.872 9.312-2.944 2.816-4.992 6.24-6.24 10.304-1.312 4.064-1.76 8.512-1.248 13.376 0.448 4.8 1.888 9.824 4.384 14.88 2.368 5.056 5.888 10.112 10.368 15.008 16.224-16.128 32.416-33.824 48.64-52.128-12.288-6.752-22.976-10.368-32.032-10.752zM598.016 397.44c-2.88-5.312-6.176-10.048-10.048-14.176-17.952 18.112-35.872 38.016-53.76 58.432 4.576 2.048 9.376 4.192 14.56 6.368s10.368 3.616 15.552 4.512c5.312 0.8 10.56 0.576 15.808-0.672 5.184-1.312 10.112-4.128 14.688-8.576 4.512-4.512 7.36-9.184 8.512-14.24 1.248-5.12 1.312-10.304 0.448-15.616-0.928-5.344-2.816-10.656-5.76-16.032zM470.944 250.24c6.304 5.088 15.584 4.832 21.376-1.056 6.272-6.24 6.272-16.448 0-22.688-0.512-0.512-1.056-0.864-1.632-1.312l0.064-0.064c-20.256-15.392-36.896-29.248-54.848-47.2-16.224-16.192-30.88-33.248-43.552-50.56l-20.448-28c-0.64-1.152-1.408-2.208-2.368-3.2-6.272-6.24-16.48-6.24-22.72 0-5.44 5.44-6.112 13.824-2.112 20.064l-0.064 0.064 21.888 29.888c13.664 18.688 29.376 36.992 46.752 54.368 18.080 18.144 37.6 34.336 57.6 49.696h0.064zM588.096 713.12c16.192 16.192 30.816 33.184 43.52 50.592l21.248 29.12c0.768 1.376 1.632 2.752 2.816 3.936 6.304 6.304 16.512 6.304 22.816 0 5.984-6.016 6.24-15.52 0.8-21.888l0.064-0.064-21.888-30.016c-13.696-18.688-29.376-36.928-46.752-54.304-18.080-18.080-37.568-34.336-57.568-49.696l-0.128 0.064c-6.368-5.856-16.256-5.728-22.368 0.448-6.304 6.304-6.304 16.576 0 22.88 1.12 1.184 2.432 2.016 3.744 2.752 18.816 14.368 36.96 29.44 53.696 46.176z" />
<glyph unicode="&#xe938;" glyph-name="qrcode" d="M320 896h-256v-256h256v256zM384 960v0-384h-384v384h384zM128 832h128v-128h-128zM960 896h-256v-256h256v256zM1024 960v0-384h-384v384h384zM768 832h128v-128h-128zM320 256h-256v-256h256v256zM384 320v0-384h-384v384h384zM128 192h128v-128h-128zM448 960h64v-64h-64zM512 896h64v-64h-64zM448 832h64v-64h-64zM512 768h64v-64h-64zM448 704h64v-64h-64zM512 640h64v-64h-64zM448 576h64v-64h-64zM448 448h64v-64h-64zM512 384h64v-64h-64zM448 320h64v-64h-64zM512 256h64v-64h-64zM448 192h64v-64h-64zM512 128h64v-64h-64zM448 64h64v-64h-64zM512 0h64v-64h-64zM960 448h64v-64h-64zM64 448h64v-64h-64zM128 512h64v-64h-64zM0 512h64v-64h-64zM256 512h64v-64h-64zM320 448h64v-64h-64zM384 512h64v-64h-64zM576 448h64v-64h-64zM640 512h64v-64h-64zM704 448h64v-64h-64zM768 512h64v-64h-64zM832 448h64v-64h-64zM896 512h64v-64h-64zM960 320h64v-64h-64zM576 320h64v-64h-64zM640 384h64v-64h-64zM704 320h64v-64h-64zM832 320h64v-64h-64zM896 384h64v-64h-64zM960 192h64v-64h-64zM576 192h64v-64h-64zM640 256h64v-64h-64zM768 256h64v-64h-64zM832 192h64v-64h-64zM896 256h64v-64h-64zM960 64h64v-64h-64zM640 128h64v-64h-64zM704 64h64v-64h-64zM768 128h64v-64h-64zM832 64h64v-64h-64zM640 0h64v-64h-64zM768 0h64v-64h-64zM896 0h64v-64h-64z" />
<glyph unicode="&#xe960;" glyph-name="download2" d="M512 384l256 256h-192v256h-128v-256h-192zM744.726 488.728l-71.74-71.742 260.080-96.986-421.066-157.018-421.066 157.018 260.080 96.986-71.742 71.742-279.272-104.728v-256l512-192 512 192v256z" />
<glyph unicode="&#xe9d7;" glyph-name="star-empty" d="M1024 562.95l-353.78 51.408-158.22 320.582-158.216-320.582-353.784-51.408 256-249.538-60.432-352.352 316.432 166.358 316.432-166.358-60.434 352.352 256.002 249.538zM512 206.502l-223.462-117.48 42.676 248.83-180.786 176.222 249.84 36.304 111.732 226.396 111.736-226.396 249.836-36.304-180.788-176.222 42.678-248.83-223.462 117.48z" />
<glyph unicode="&#xe9d9;" glyph-name="star-full" d="M1024 562.95l-353.78 51.408-158.22 320.582-158.216-320.582-353.784-51.408 256-249.538-60.432-352.352 316.432 166.358 316.432-166.358-60.434 352.352 256.002 249.538z" />
<glyph unicode="&#xea3a;" glyph-name="arrow-up3" d="M877.254 557.254l-320 320c-24.992 24.994-65.514 24.994-90.508 0l-320-320c-24.994-24.994-24.994-65.516 0-90.51 24.994-24.996 65.516-24.996 90.51 0l210.744 210.746v-613.49c0-35.346 28.654-64 64-64s64 28.654 64 64v613.49l210.746-210.746c12.496-12.496 28.876-18.744 45.254-18.744s32.758 6.248 45.254 18.746c24.994 24.994 24.994 65.514 0 90.508z" />
<glyph unicode="&#xea3c;" glyph-name="arrow-right3" d="M621.254 82.746l320 320c24.994 24.992 24.994 65.516 0 90.51l-320 320c-24.994 24.992-65.516 24.992-90.51 0-24.994-24.994-24.994-65.516 0-90.51l210.746-210.746h-613.49c-35.346 0-64-28.654-64-64s28.654-64 64-64h613.49l-210.746-210.746c-12.496-12.496-18.744-28.876-18.744-45.254s6.248-32.758 18.744-45.254c24.994-24.994 65.516-24.994 90.51 0z" />
<glyph unicode="&#xea3e;" glyph-name="arrow-down3" d="M877.254 338.746l-320-320c-24.992-24.994-65.514-24.994-90.508 0l-320 320c-24.994 24.994-24.994 65.516 0 90.51 24.994 24.996 65.516 24.996 90.51 0l210.744-210.746v613.49c0 35.346 28.654 64 64 64s64-28.654 64-64v-613.49l210.746 210.746c12.496 12.496 28.876 18.744 45.254 18.744s32.758-6.248 45.254-18.746c24.994-24.994 24.994-65.514 0-90.508z" />
<glyph unicode="&#xea40;" glyph-name="arrow-left3" d="M402.746 82.746l-320 320c-24.994 24.992-24.994 65.516 0 90.51l320 320c24.994 24.992 65.516 24.992 90.51 0 24.994-24.994 24.994-65.516 0-90.51l-210.746-210.746h613.49c35.346 0 64-28.654 64-64s-28.654-64-64-64h-613.49l210.746-210.746c12.496-12.496 18.744-28.876 18.744-45.254s-6.248-32.758-18.744-45.254c-24.994-24.994-65.516-24.994-90.51 0z" />
<glyph unicode="&#xea41;" glyph-name="circle-up" d="M0 448c0-282.77 229.23-512 512-512s512 229.23 512 512-229.23 512-512 512-512-229.23-512-512zM928 448c0-229.75-186.25-416-416-416s-416 186.25-416 416 186.25 416 416 416 416-186.25 416-416zM706.744 290.744l90.512 90.512-285.256 285.254-285.254-285.256 90.508-90.508 194.746 194.744z" />
<glyph unicode="&#xea42;" glyph-name="circle-right" d="M512 960c-282.77 0-512-229.23-512-512s229.23-512 512-512 512 229.23 512 512-229.23 512-512 512zM512 32c-229.75 0-416 186.25-416 416s186.25 416 416 416 416-186.25 416-416-186.25-416-416-416zM354.744 253.256l90.512-90.512 285.254 285.256-285.256 285.254-90.508-90.508 194.744-194.746z" />
<glyph unicode="&#xea43;" glyph-name="circle-down" d="M1024 448c0 282.77-229.23 512-512 512s-512-229.23-512-512 229.23-512 512-512 512 229.23 512 512zM96 448c0 229.75 186.25 416 416 416s416-186.25 416-416-186.25-416-416-416-416 186.25-416 416zM317.256 605.256l-90.512-90.512 285.256-285.254 285.254 285.256-90.508 90.508-194.746-194.744z" />
<glyph unicode="&#xea44;" glyph-name="circle-left" d="M512-64c282.77 0 512 229.23 512 512s-229.23 512-512 512-512-229.23-512-512 229.23-512 512-512zM512 864c229.75 0 416-186.25 416-416s-186.25-416-416-416-416 186.25-416 416 186.25 416 416 416zM669.256 642.744l-90.512 90.512-285.254-285.256 285.256-285.254 90.508 90.508-194.744 194.746z" />
</font>
</defs>
</svg>
